<?xml version="1.0" encoding="UTF-8" standalone="no"?>
<!DOCTYPE svg PUBLIC "-//W3C//DTD SVG 1.1//EN" "http://www.w3.org/Graphics/SVG/1.1/DTD/svg11.dtd">
<svg width="100%" height="100%" viewBox="0 0 161 192" version="1.1" xmlns="http://www.w3.org/2000/svg" xmlns:xlink="http://www.w3.org/1999/xlink" xml:space="preserve" xmlns:serif="http://www.serif.com/" style="fill-rule:evenodd;clip-rule:evenodd;stroke-linejoin:round;stroke-miterlimit:2;">
    <g transform="matrix(0.1,0,0,-0.1,0,192)">
        <g transform="matrix(1.03716,0,0,1.03716,-29.5425,-35.8598)">
            <path d="M930,1124C930,361 930,358 950,353C962,350 970,344 968,339C962,322 727,40 719,40C714,40 713,355 717,740C721,1236 720,1440 713,1440C707,1440 674,1427 639,1410C604,1394 574,1382 572,1385C566,1390 913,1889 923,1890C927,1890 930,1545 930,1124Z" style="fill:white;"/>
        </g>
        <g transform="matrix(1.03716,0,0,1.03716,-29.5425,-35.8598)">
            <path d="M333,1483C378,1328 514,892 520,881C528,865 545,913 636,1223L685,1392L687,1143L690,895L611,655C568,523 529,416 524,417C519,418 478,530 434,665C389,800 350,914 346,917C343,921 340,822 340,699L340,474L370,445C386,429 400,413 400,408C400,404 321,400 225,400C129,400 50,404 50,408C50,413 64,429 80,445L110,474L110,1419L80,1453C64,1472 50,1490 50,1494C50,1497 112,1500 189,1500C312,1500 328,1498 333,1483Z" style="fill:white;"/>
        </g>
        <g transform="matrix(1.03716,0,0,1.03716,-29.5425,-35.8598)">
            <path d="M1518,1492C1526,1486 1511,1470 1468,1441C1411,1402 1393,1380 1277,1205C1158,1027 1149,1010 1161,988C1167,976 1236,858 1313,727C1420,545 1463,481 1496,453C1520,434 1540,414 1540,409C1540,404 1479,400 1405,400L1271,400L1149,605C1083,718 1024,810 1020,810C1015,810 1001,793 988,773L965,735L958,885C955,968 954,1043 957,1053C959,1062 1010,1143 1069,1233C1128,1322 1180,1401 1184,1408C1188,1415 1182,1435 1170,1454C1155,1480 1153,1489 1162,1493C1183,1502 1504,1500 1518,1492Z" style="fill:white;"/>
        </g>
    </g>
</svg>
