<svg width="78" height="78" viewBox="0 0 78 78" fill="none" xmlns="http://www.w3.org/2000/svg">
<path d="M39 0.5625C31.3978 0.5625 23.9663 2.81682 17.6453 7.04039C11.3243 11.264 6.39764 17.2671 3.4884 24.2906C0.579154 31.3141 -0.182036 39.0426 1.30108 46.4988C2.7842 53.9549 6.44502 60.8038 11.8206 66.1794C17.1962 71.555 24.0451 75.2158 31.5012 76.6989C38.9574 78.1821 46.6859 77.4209 53.7094 74.5116C60.7329 71.6024 66.7361 66.6757 70.9596 60.3547C75.1832 54.0337 77.4375 46.6022 77.4375 39C77.4375 28.8057 73.3879 19.029 66.1794 11.8206C58.971 4.61215 49.1943 0.5625 39 0.5625ZM45.4063 38.4234L62.0305 21.7672C62.1086 21.6786 62.2048 21.6076 62.3124 21.559C62.4201 21.5104 62.5369 21.4852 62.6551 21.4852C62.7733 21.4852 62.8901 21.5104 62.9977 21.559C63.1054 21.6076 63.2016 21.6786 63.2797 21.7672C66.8507 26.7618 68.7706 32.748 68.7706 38.8879C68.7706 45.0278 66.8507 51.014 63.2797 56.0086C63.2016 56.0972 63.1054 56.1682 62.9977 56.2168C62.8901 56.2654 62.7733 56.2906 62.6551 56.2906C62.5369 56.2906 62.4201 56.2654 62.3124 56.2168C62.2048 56.1682 62.1086 56.0972 62.0305 56.0086L45.4063 39.5445C45.3297 39.4726 45.2686 39.3858 45.2269 39.2894C45.1851 39.193 45.1636 39.089 45.1636 38.984C45.1636 38.8789 45.1851 38.775 45.2269 38.6786C45.2686 38.5822 45.3297 38.4953 45.4063 38.4234ZM56.393 16.0016L39.7367 32.6578C39.6648 32.7344 39.578 32.7955 39.4816 32.8372C39.3852 32.8789 39.2812 32.9005 39.1762 32.9005C39.0711 32.9005 38.9672 32.8789 38.8708 32.8372C38.7744 32.7955 38.6875 32.7344 38.6156 32.6578L21.9594 16.0016C21.8708 15.9234 21.7998 15.8273 21.7512 15.7196C21.7026 15.6119 21.6774 15.4951 21.6774 15.377C21.6774 15.2588 21.7026 15.142 21.7512 15.0343C21.7998 14.9266 21.8708 14.8305 21.9594 14.7523C26.965 11.2084 32.947 9.30512 39.0801 9.30512C45.2132 9.30512 51.1952 11.2084 56.2008 14.7523C56.3086 14.8271 56.3972 14.9262 56.4594 15.0417C56.5216 15.1572 56.5556 15.2857 56.5588 15.4169C56.5619 15.548 56.534 15.678 56.4774 15.7963C56.4207 15.9146 56.3369 16.0179 56.2328 16.0977L56.393 16.0016ZM16.1297 21.7352L32.786 38.4234C32.8626 38.4953 32.9236 38.5822 32.9654 38.6786C33.0071 38.775 33.0286 38.8789 33.0286 38.984C33.0286 39.089 33.0071 39.193 32.9654 39.2894C32.9236 39.3858 32.8626 39.4726 32.786 39.5445L16.0977 56.2328C16.0225 56.3207 15.9292 56.3913 15.8241 56.4397C15.719 56.4881 15.6047 56.5131 15.4891 56.5131C15.3734 56.5131 15.2591 56.4881 15.1541 56.4397C15.049 56.3913 14.9557 56.3207 14.8805 56.2328C11.2995 51.2302 9.37402 45.2323 9.37402 39.0801C9.37402 32.9279 11.2995 26.93 14.8805 21.9273C14.9439 21.8254 15.0286 21.7384 15.1288 21.6723C15.229 21.6062 15.3423 21.5625 15.4609 21.5442C15.5796 21.526 15.7008 21.5336 15.8162 21.5665C15.9316 21.5995 16.0386 21.657 16.1297 21.7352ZM21.7672 61.9023L38.4555 45.2141C38.5274 45.1375 38.6142 45.0764 38.7106 45.0347C38.807 44.9929 38.911 44.9714 39.016 44.9714C39.1211 44.9714 39.225 44.9929 39.3214 45.0347C39.4179 45.0764 39.5047 45.1375 39.5766 45.2141L56.2328 61.8703C56.3214 61.9485 56.3924 62.0446 56.441 62.1523C56.4896 62.26 56.5148 62.3768 56.5148 62.4949C56.5148 62.6131 56.4896 62.7299 56.441 62.8376C56.3924 62.9453 56.3214 63.0414 56.2328 63.1195C51.2223 66.6662 45.2348 68.5709 39.0961 68.5709C32.9574 68.5709 26.9699 66.6662 21.9594 63.1195C21.8624 63.0558 21.7799 62.9725 21.717 62.8751C21.6541 62.7776 21.6122 62.668 21.5941 62.5534C21.576 62.4388 21.5821 62.3217 21.6119 62.2096C21.6417 62.0975 21.6946 61.9928 21.7672 61.9023Z" fill="white"/>
</svg>
