<svg width="14" height="16" viewBox="0 0 14 16" fill="none" xmlns="http://www.w3.org/2000/svg">
<path fill-rule="evenodd" clip-rule="evenodd" d="M9.43263 0C10.684 0 11.6985 1.01447 11.6985 2.26588C11.6985 3.5173 10.684 4.53177 9.43263 4.53177C8.1812 4.53177 7.16669 3.5173 7.16669 2.26588C7.16669 1.01447 8.1812 0 9.43263 0ZM5.926 6.45171L6.50304 6.7402L4.55546 10.8517C4.48335 10.9959 4.26694 11.1402 4.12272 11.0681L2.17054 10.5631C1.59351 10.4189 1.01641 10.7795 0.872184 11.3565C0.72789 11.9336 1.08859 12.5107 1.66562 12.6549L3.6178 13.1599C3.8342 13.232 4.05061 13.232 4.26694 13.232C5.3489 13.232 6.28663 12.5828 6.64726 11.573L6.79155 11.1402L8.52265 12.2943C8.59484 12.2943 8.66695 12.3664 8.66695 12.4386L9.67679 15.3508C9.8932 15.7836 10.2538 16 10.6866 16C10.8309 16 10.9751 16 11.1194 15.9278C11.6964 15.6393 11.9128 15.0623 11.6964 14.4852L10.6866 11.573C10.4702 11.1402 10.1817 10.7796 9.7489 10.4911L7.6571 9.12051L8.45054 7.67793L9.46039 8.18285C10.3981 8.61566 11.5522 8.47137 12.3456 7.67793L13.6754 6.33445C14.1082 5.90166 14.1082 5.25248 13.6754 4.81969C13.2426 4.38691 12.5934 4.38691 12.1607 4.81969L10.8309 6.16317C10.6866 6.30743 10.5423 6.30743 10.3981 6.2353L8.45054 5.22548L6.86366 4.43203C6.21452 4.14351 5.5653 4.07139 4.91616 4.28778C4.26694 4.50417 3.76202 5.00908 3.47351 5.58613L2.46366 7.50204C2.24733 8.00696 2.46366 8.65618 2.96858 8.94469C3.50803 9.21438 4.09364 9.04122 4.41124 8.51189L5.42108 6.59596C5.5653 6.4517 5.78171 6.37958 5.926 6.45171Z" fill="white"/>
</svg>
