<svg width="16" height="16" viewBox="0 0 16 16" fill="none" xmlns="http://www.w3.org/2000/svg">
<path fill-rule="evenodd" clip-rule="evenodd" d="M8.21354 0.615387C9.40977 0.615387 10.3795 1.58515 10.3795 2.7814C10.3795 3.97766 9.40977 4.94741 8.21354 4.94741C7.01728 4.94741 6.04748 3.97766 6.04748 2.7814C6.04748 1.58515 7.01728 0.615387 8.21354 0.615387ZM4.86148 6.78272L5.41308 7.05849L3.55135 10.9888C3.48241 11.1266 3.27555 11.2646 3.13768 11.1956L1.27155 10.7129C0.71995 10.575 0.168284 10.9198 0.0304174 11.4714C-0.107515 12.023 0.237283 12.5746 0.788882 12.7125L2.65501 13.1952C2.86188 13.2642 3.06875 13.2642 3.27555 13.2642C4.30981 13.2642 5.20621 12.6436 5.55094 11.6783L5.68888 11.2646L7.34368 12.3678C7.41268 12.3678 7.48161 12.4368 7.48161 12.5057L8.44694 15.2896C8.65381 15.7033 8.99854 15.9102 9.41225 15.9102C9.55015 15.9102 9.68805 15.9102 9.82595 15.8412C10.3776 15.5654 10.5844 15.0138 10.3776 14.4622L9.41225 11.6783C9.20541 11.2646 8.92961 10.9198 8.51587 10.644L6.51628 9.33389L7.27474 7.95489L8.24007 8.43756C9.13647 8.85129 10.2397 8.71336 10.9981 7.95489L12.2693 6.67063C12.683 6.25692 12.683 5.63635 12.2693 5.22264C11.8556 4.80894 11.235 4.80894 10.8213 5.22264L9.55015 6.5069C9.41225 6.6448 9.27434 6.64481 9.13647 6.57585L7.27474 5.61054L5.75781 4.85207C5.13728 4.57626 4.51668 4.50732 3.89615 4.71418C3.27555 4.92103 2.79288 5.40368 2.51708 5.95529L1.55175 7.78676C1.34495 8.26943 1.55175 8.89002 2.03441 9.16582C2.55008 9.42362 3.10988 9.25809 3.41348 8.75209L4.37881 6.92061C4.51668 6.78271 4.72355 6.71377 4.86148 6.78272ZM10.7641 12.3678L10.464 12.1677L10.1996 11.4052C10.1878 11.3711 10.1737 11.3378 10.1576 11.3056C9.89586 10.782 9.52978 10.3184 8.97814 9.95056L8.97261 9.94689L7.82228 9.19322L7.83488 9.16662L7.86741 9.18289L7.88128 9.18962L7.89087 9.19416C8.56341 9.50456 9.32854 9.58296 10.0511 9.40889L11.9363 10.644C12.35 10.9198 12.6258 11.2646 12.8327 11.6782L13.798 14.4622C14.0048 15.0138 13.798 15.5654 13.2464 15.8412C13.1085 15.9101 12.9706 15.9101 12.8327 15.9101C12.419 15.9101 12.0742 15.7033 11.8673 15.2896L10.902 12.5057C10.902 12.4367 10.8331 12.3678 10.7641 12.3678ZM14.2417 5.22262L13.4091 6.0638C13.3811 6.49518 13.1981 6.91946 12.8603 7.25816L11.6828 8.44769C12.5751 8.84889 13.6664 8.70703 14.4185 7.95489L15.6897 6.67061C16.1034 6.2569 16.1034 5.63633 15.6897 5.22262C15.276 4.80891 14.6554 4.80891 14.2417 5.22262ZM10.5528 0.904063C10.9658 1.41797 11.2129 2.07083 11.2129 2.7814C11.2129 3.30238 11.08 3.79233 10.8464 4.21924C11.5009 3.94646 12.2661 4.07164 12.8189 4.5948C13.4097 4.20798 13.7999 3.54026 13.7999 2.7814C13.7999 1.58515 12.8302 0.615387 11.6339 0.615387C11.2402 0.615387 10.871 0.720447 10.5528 0.904063Z" fill="white"/>
</svg>
