<svg width="16" height="16" viewBox="0 0 16 16" fill="none" xmlns="http://www.w3.org/2000/svg">
<path fill-rule="evenodd" clip-rule="evenodd" d="M4.59878 1.24142C5.71934 1.32262 6.88696 1.86886 8.00467 2.97438C9.1221 1.86916 10.2887 1.32396 11.4082 1.24457C12.6717 1.15497 13.7887 1.66563 14.5969 2.47132C16.1857 4.05542 16.6847 6.92183 14.7131 8.89345C14.7065 8.9001 14.6996 8.90659 14.6926 8.9129L8.38827 14.6235C8.17055 14.8206 7.83878 14.8206 7.62107 14.6235L1.31667 8.9129C1.3097 8.90659 1.30289 8.9001 1.29624 8.89345C-0.685657 6.91156 -0.189367 4.04481 1.40473 2.46195C2.21486 1.65753 3.33412 1.14979 4.59878 1.24142Z" fill="white"/>
</svg>
