<svg width="6" height="20" viewBox="0 0 6 20" fill="none" xmlns="http://www.w3.org/2000/svg">
<path d="M5.54313 6.85551L0.607628 7.47401L0.430878 8.29301L1.40075 8.47188C2.03438 8.62276 2.15938 8.85126 2.0215 9.48276L0.430878 16.9573C0.0127526 18.8905 0.657128 19.8 2.17238 19.8C3.347 19.8 4.71125 19.2569 5.32975 18.5111L5.5195 17.6146C5.08838 17.9939 4.459 18.1448 4.04088 18.1448C3.44825 18.1448 3.23275 17.7288 3.38575 16.996L5.54313 6.85551ZM5.694 2.35526C5.694 4.01438 3.898 5.05138 2.46113 4.22176C1.79425 3.83676 1.3835 3.12526 1.3835 2.35526C1.3835 0.696132 3.1795 -0.340868 4.61638 0.488757C5.28325 0.873757 5.694 1.58526 5.694 2.35526Z" fill="white"/>
</svg>
