<svg width="13" height="17" viewBox="0 0 13 17" fill="none" xmlns="http://www.w3.org/2000/svg">
<path d="M4.53401 3.47763C4.53401 3.9419 4.71844 4.38716 5.04673 4.71545C5.37503 5.04374 5.82028 5.22817 6.28456 5.22817C6.74883 5.22817 7.19409 5.04374 7.52238 4.71545C7.85067 4.38716 8.0351 3.9419 8.0351 3.47763C8.0351 3.01335 7.85067 2.56809 7.52238 2.2398C7.19409 1.91151 6.74883 1.72708 6.28456 1.72708C5.82028 1.72708 5.37503 1.91151 5.04673 2.2398C4.71844 2.56809 4.53401 3.01335 4.53401 3.47763Z" fill="white"/>
<path d="M12.7966 14.317C12.8676 14.0978 12.8494 13.8595 12.7458 13.6537C12.6423 13.4479 12.4617 13.2912 12.2434 13.2176L10.6399 12.6715C10.1712 12.5103 9.78086 12.1775 9.54756 11.7402L9.0434 10.7669C8.8867 10.4664 8.80502 10.1325 8.80533 9.79358V7.61591C8.80521 7.58174 8.81509 7.54829 8.83375 7.51967C8.85242 7.49105 8.87905 7.46852 8.91036 7.45486C9.74157 7.10955 10.514 6.63709 11.2001 6.05442C11.5826 5.73368 11.8499 5.2967 11.9611 4.81003C12.0723 4.32336 12.0215 3.81367 11.8163 3.35858L10.8009 1.22992C10.733 1.07708 10.6219 0.947353 10.4814 0.85658C10.3409 0.765806 10.177 0.717917 10.0097 0.718761C9.88443 0.720053 9.76066 0.746235 9.64559 0.795785C9.54058 0.843381 9.446 0.911256 9.3673 0.995511C9.2886 1.07977 9.22731 1.17874 9.18697 1.28675C9.14663 1.39476 9.12803 1.50967 9.13223 1.62489C9.13643 1.74011 9.16336 1.85336 9.21146 1.95815L10.2198 4.11482C10.2682 4.21964 10.2807 4.3375 10.2554 4.45015C10.2301 4.56281 10.1683 4.66398 10.0797 4.73801C8.66004 5.86158 6.88994 6.44914 5.08017 6.39753C4.00008 6.39549 2.92631 6.23266 1.89418 5.91438C1.80199 5.88173 1.70489 5.86515 1.60709 5.86536C1.39989 5.8641 1.19896 5.93638 1.04004 6.06935C0.881134 6.20233 0.774551 6.38737 0.739261 6.59155C0.70397 6.79573 0.742261 7.0058 0.84732 7.1844C0.952379 7.363 1.11739 7.49853 1.313 7.56689C2.54002 7.95657 3.8208 8.15034 5.10818 8.14107C5.1525 8.14237 5.19483 8.15979 5.22722 8.19008C5.26109 8.22354 5.2811 8.26856 5.28323 8.31612V10.1717C5.28176 10.3794 5.25591 10.5862 5.20621 10.7879L4.87711 12.0833C4.64823 13.0061 4.78364 13.9816 5.25523 14.8071L6.09549 16.2776C6.1723 16.4121 6.28343 16.5238 6.41751 16.6013C6.5516 16.6788 6.70385 16.7193 6.85872 16.7187C7.01162 16.7196 7.16181 16.6785 7.29286 16.5997C7.39253 16.543 7.48 16.4672 7.55021 16.3766C7.62043 16.2859 7.67199 16.1823 7.70194 16.0716C7.73189 15.961 7.73962 15.8455 7.72469 15.7318C7.70976 15.6181 7.67247 15.5085 7.61496 15.4093L6.7957 13.9179C6.55777 13.4919 6.48783 12.9923 6.59964 12.5174L6.90774 11.292C6.91876 11.2445 6.94549 11.202 6.9836 11.1716C7.02172 11.1411 7.069 11.1243 7.1178 11.124C7.15818 11.1243 7.19771 11.1356 7.23222 11.1565C7.26673 11.1775 7.29494 11.2074 7.31386 11.243L8.01408 12.5454C8.45789 13.3892 9.21049 14.0289 10.1147 14.331L11.7182 14.8772C11.8092 14.9043 11.9034 14.9184 11.9983 14.9192C12.1767 14.9114 12.3485 14.8496 12.491 14.7421C12.6335 14.6346 12.7401 14.4863 12.7966 14.317Z" fill="white"/>
</svg>
