<svg width="16" height="15" viewBox="0 0 16 15" fill="none" xmlns="http://www.w3.org/2000/svg">
<path d="M15.7533 7.97203H9.65363C9.55803 7.97017 9.46687 7.93137 9.39925 7.86376C9.33164 7.79615 9.29284 7.70498 9.29099 7.60938C9.29099 7.5132 9.32919 7.42096 9.3972 7.35296C9.46521 7.28495 9.55745 7.24674 9.65363 7.24674H13.2801C13.6167 7.24674 13.9395 7.11302 14.1776 6.87498C14.4156 6.63695 14.5493 6.31411 14.5493 5.97749C14.5493 5.64086 14.4156 5.31802 14.1776 5.07999C13.9395 4.84196 13.6167 4.70823 13.2801 4.70823H6.02719C5.98825 4.70712 5.9506 4.69397 5.91943 4.6706C5.88826 4.64722 5.86509 4.61476 5.85312 4.57768C5.84188 4.54053 5.84286 4.50075 5.85592 4.46419C5.86897 4.42763 5.89342 4.39623 5.92565 4.3746L8.10151 2.83699C8.34081 2.6326 8.4951 2.34618 8.53413 2.03391C8.57316 1.72163 8.49411 1.40604 8.31248 1.14904C8.13086 0.892043 7.85976 0.712175 7.55238 0.644721C7.24499 0.577267 6.92349 0.627094 6.65094 0.784429L1.02271 4.75175C0.709726 4.96745 0.453359 5.25542 0.275337 5.59126C0.0973148 5.9271 0.00288556 6.30092 5.29263e-05 6.68102V10.3075C-0.00284724 10.9076 0.113468 11.5024 0.342251 12.0573C0.571033 12.6122 0.907728 13.1161 1.3328 13.5398C1.75787 13.9635 2.26285 14.2986 2.81845 14.5256C3.37405 14.7526 3.9692 14.8671 4.56936 14.8623H11.097C11.2975 14.8617 11.4951 14.8142 11.6739 14.7235C11.8528 14.6328 12.0079 14.5015 12.1269 14.34C12.2504 14.1752 12.3333 13.9835 12.3685 13.7806C12.4038 13.5776 12.3906 13.3692 12.3299 13.1723C12.3177 13.136 12.2942 13.1045 12.263 13.0824C12.2317 13.0602 12.1942 13.0486 12.1559 13.049H8.5657C8.4701 13.0472 8.37893 13.0084 8.31132 12.9408C8.24371 12.8732 8.20491 12.782 8.20305 12.6864C8.20305 12.5902 8.24126 12.498 8.30927 12.43C8.37728 12.362 8.46952 12.3238 8.5657 12.3238H13.2801C13.4806 12.3232 13.6782 12.2757 13.857 12.185C14.0359 12.0943 14.191 11.963 14.31 11.8015C14.4323 11.6361 14.5138 11.4441 14.5479 11.2412C14.5819 11.0382 14.5675 10.8301 14.5058 10.6338C14.4935 10.5975 14.4701 10.566 14.4388 10.5439C14.4075 10.5217 14.3701 10.5101 14.3317 10.5105H9.65363C9.55803 10.5087 9.46687 10.4699 9.39925 10.4023C9.33164 10.3347 9.29284 10.2435 9.29099 10.1479C9.29099 10.0517 9.32919 9.95947 9.3972 9.89146C9.46521 9.82345 9.55745 9.78525 9.65363 9.78525H14.7306C15.0673 9.78525 15.3901 9.65152 15.6281 9.41349C15.8662 9.17546 15.9999 8.85262 15.9999 8.51599C16.0018 8.37014 15.9773 8.22514 15.9274 8.08807C15.9139 8.05312 15.8899 8.02319 15.8588 8.00241C15.8276 7.98163 15.7907 7.97102 15.7533 7.97203Z" fill="white"/>
</svg>
