<svg width="8" height="16" viewBox="0 0 8 16" fill="none" xmlns="http://www.w3.org/2000/svg">
<path d="M3.30951 2.33528C3.30951 2.95463 3.55555 3.54862 3.9935 3.98657C4.43145 4.42452 5.02543 4.67056 5.64479 4.67056C6.26414 4.67056 6.85813 4.42452 7.29608 3.98657C7.73403 3.54862 7.98007 2.95463 7.98007 2.33528C7.98007 1.71592 7.73403 1.12194 7.29608 0.683987C6.85813 0.246038 6.26414 0 5.64479 0C5.02543 0 4.43145 0.246038 3.9935 0.683987C3.55555 1.12194 3.30951 1.71592 3.30951 2.33528Z" fill="white"/>
<path d="M5.47799 9.42786C5.31412 8.98205 5.31412 8.49251 5.47799 8.0467L5.81827 7.09925C5.87785 6.93189 5.90389 6.75444 5.89489 6.57702C5.88589 6.3996 5.84204 6.2257 5.76583 6.06523C5.68962 5.90476 5.58255 5.76087 5.45074 5.64178C5.31892 5.52269 5.16494 5.43072 4.99759 5.37114C4.83023 5.31156 4.65278 5.28552 4.47536 5.29452C4.29794 5.30352 4.12403 5.34737 3.96356 5.42358C3.80309 5.49979 3.65921 5.60686 3.54011 5.73867C3.42102 5.87049 3.32906 6.02447 3.26948 6.19183L0.387077 14.1985C0.266893 14.5312 0.283718 14.898 0.433854 15.2183C0.58399 15.5386 0.855152 15.7861 1.18774 15.9066C1.3332 15.9594 1.48672 15.9865 1.64146 15.9867C1.9157 15.9865 2.18325 15.9019 2.4077 15.7443C2.63215 15.5867 2.80259 15.3638 2.89583 15.1059L3.63645 13.0442C3.64884 13.012 3.67089 12.9845 3.69957 12.9654C3.72824 12.9463 3.76213 12.9365 3.79658 12.9374C3.8299 12.9379 3.86232 12.9483 3.88968 12.9673C3.91703 12.9863 3.93805 13.0131 3.95005 13.0442L4.7307 15.1193C4.82355 15.3761 4.99297 15.5983 5.2161 15.7558C5.43922 15.9133 5.7053 15.9985 5.9784 16C6.13812 16.0003 6.2965 15.9709 6.44546 15.9133C6.776 15.7889 7.04377 15.5386 7.1901 15.2172C7.33643 14.8958 7.34938 14.5294 7.22611 14.1985L5.47799 9.42786Z" fill="white"/>
</svg>
