<?xml version="1.0" encoding="UTF-8" standalone="no"?>
<!DOCTYPE svg PUBLIC "-//W3C//DTD SVG 1.1//EN" "http://www.w3.org/Graphics/SVG/1.1/DTD/svg11.dtd">
<svg width="100%" height="100%" viewBox="0 0 1080 1080" version="1.1" xmlns="http://www.w3.org/2000/svg" xmlns:xlink="http://www.w3.org/1999/xlink" xml:space="preserve" xmlns:serif="http://www.serif.com/" style="fill-rule:evenodd;clip-rule:evenodd;stroke-linejoin:round;stroke-miterlimit:2;">
    <g transform="matrix(1.60982,0,0,1.60982,3.88459,-298.559)">
        <g transform="matrix(1,0,0,1,-168.78,-8.03712)">
            <path d="M465.641,315.955L472.785,378.466L497.789,411.508L456.711,537.423L441.529,635.654L432.599,650.836L393.307,862.48L423.669,616.901L414.739,603.506L429.92,529.386L435.278,499.023L429.92,435.619L433.492,410.615L417.418,392.755L465.641,315.955" style="fill:white;"/>
        </g>
        <path d="M441.529,187.361L401.344,370.429L396.879,412.401L344.191,567.785L350.442,600.827L342.405,630.296L354.907,657.087L345.977,745.495L415.632,643.691L412.953,625.831L407.595,576.715L405.809,549.925L426.348,467.768L426.348,366.857L437.064,290.058L441.529,187.361Z" style="fill:white;"/>
    </g>
    <g transform="matrix(1.02378,0,0,1.02378,-11.7565,-12.1151)">
        <g id="Layer1">
            <g>
                <path d="M16.089,129.064L176.552,129.064L176.552,175.11C176.552,175.11 137.483,179.296 137.483,207.203C137.483,235.11 140.273,740.221 140.273,740.221C140.273,740.221 148.645,869.987 222.598,869.987C296.551,869.987 313.295,737.43 311.899,737.43C310.504,737.43 311.899,209.994 311.899,209.994C311.899,209.994 304.923,170.924 272.83,170.924L272.83,127.669L394.224,127.669L394.224,172.32C394.224,172.32 354.457,168.134 354.457,212.087L354.457,737.43C354.457,737.43 337.015,950.916 223.993,950.916C110.971,950.916 63.53,823.941 63.53,736.035L63.53,208.598C63.53,208.598 62.298,177.362 16.3,177.362C16.252,177.362 16.089,129.064 16.089,129.064Z" style="fill:white;"/>
                <path d="M411.145,129.363L528.145,129.363L706.145,618.363L706.145,205.363C706.145,205.363 708.145,173.61 663.145,173.61C662.969,173.61 663.145,129.363 663.145,129.363L786.145,129.363L786.145,171.363C786.145,171.363 743.145,176.363 743.145,207.363L743.145,944.363L719.145,944.363L489.145,312.363L489.145,824.363C489.145,824.363 490.537,878.168 537.537,878.168C537.626,878.168 538.145,921.363 538.145,921.363L410.145,921.363L410.145,878.363C410.145,878.363 457.145,869.363 457.145,825.363L457.145,207.363C457.145,207.363 455.067,171.748 411.067,171.748C410.993,171.748 411.145,129.363 411.145,129.363Z" style="fill:white;"/>
                <path d="M835.798,130.102L1061.8,130.102L1061.8,177.489C1061.8,177.489 992.539,179.919 992.539,227.306L992.539,846.978C992.539,846.978 994.969,891.934 1059.37,891.934C1059.58,891.934 1059.37,941.751 1059.37,941.751L834.583,941.751L834.583,898.01C834.583,898.01 898.98,900.44 898.98,848.193L898.98,226.091C898.98,226.091 903.955,172.462 835.912,172.462C835.373,172.462 835.798,130.102 835.798,130.102Z" style="fill:white;"/>
            </g>
        </g>
    </g>
</svg>
