<?xml version="1.0" encoding="UTF-8" standalone="no"?>
<!DOCTYPE svg PUBLIC "-//W3C//DTD SVG 1.1//EN" "http://www.w3.org/Graphics/SVG/1.1/DTD/svg11.dtd">
<svg width="100%" height="100%" viewBox="0 0 1080 1080" version="1.1" xmlns="http://www.w3.org/2000/svg" xmlns:xlink="http://www.w3.org/1999/xlink" xml:space="preserve" xmlns:serif="http://www.serif.com/" style="fill-rule:evenodd;clip-rule:evenodd;stroke-linejoin:round;stroke-miterlimit:2;">
    <g transform="matrix(1,0,0,1,1.49157,-32.8221)">
        <g id="Layer1">
            <g>
                <g transform="matrix(1.02954,0,0,1.02954,-11.8341,14.7789)">
                    <path d="M615.435,348.212C615.435,348.212 606.304,393.757 615.959,448.849C615.536,448.511 593.862,446.087 593.862,446.087C593.862,446.087 588.121,361.175 466.672,362.37C345.223,363.564 336.065,461.918 336.463,473.864C336.861,485.809 329.694,563.059 335.667,582.172C341.639,601.285 359.16,717.48 488.573,717.956C488.573,717.956 533.568,716.839 541.532,712.061L541.532,583.843C541.532,583.843 526.799,561.146 478.22,553.978C478.22,553.978 474.636,528.096 488.971,524.512C488.971,524.512 547.505,534.865 569.008,536.856C590.51,538.847 639.886,544.023 652.628,573.091C652.628,573.091 616.393,568.313 610.818,605.743L610.818,722.812C610.818,722.812 610.42,731.572 619.976,735.952C619.976,735.952 598.474,761.038 550.293,755.065C550.293,755.065 578.564,767.808 577.37,800.061C577.37,800.061 595.288,812.007 598.076,819.573L596.483,835.102C596.483,835.102 572.99,831.519 561.442,844.659C561.442,844.659 531.976,815.193 492.156,850.632L498.527,855.012L483.794,867.754L469.061,867.754C469.061,867.754 408.536,836.695 256.028,866.958C256.028,866.958 188.733,882.089 189.132,929.872C189.132,929.872 173.204,901.202 179.973,884.478C186.742,867.754 217.005,837.89 230.145,827.138L247.666,804.84C247.666,804.84 279.521,803.645 301.024,796.478C301.024,796.478 257.621,763.428 265.186,720.025L285.096,711.264C285.096,711.264 138.959,631.227 142.145,528.096C142.145,528.096 142.941,479.914 172.407,450.448C172.407,450.448 124.226,431.733 112.679,405.452C112.679,405.452 146.127,414.212 172.806,410.23C199.485,406.249 190.326,394.303 190.326,394.303L203.467,406.647C203.467,406.647 218.2,363.642 202.67,348.909C187.141,334.176 171.213,342.538 166.036,346.918C160.86,351.298 156.082,365.235 135.376,364.04C135.376,364.04 151.701,337.361 132.986,312.275C132.986,312.275 88.389,293.56 46.579,312.275C46.579,312.275 27.465,319.841 24.678,340.148C24.678,340.148 5.166,324.619 13.528,302.718C21.891,280.818 62.904,254.935 93.963,246.971C125.023,239.007 199.485,251.351 277.53,321.832C277.53,321.832 274.743,304.709 279.92,298.736C279.92,298.736 291.467,317.451 317.748,320.239C344.029,323.026 379.468,305.506 379.468,305.506C379.468,305.506 347.214,295.153 350.001,272.057C350.001,272.057 373.495,286.791 401.368,287.985C401.368,287.985 380.662,278.429 381.061,262.899C381.061,262.899 367.92,259.714 335.667,254.537C335.667,254.537 301.024,246.175 281.114,221.885L355.576,216.31C355.576,216.31 384.644,237.017 429.64,237.017C429.64,237.017 373.893,200.781 363.938,154.192L451.541,194.41C451.541,194.41 454.726,229.849 479.414,246.175L508.88,248.962L549.496,274.447L615.596,277.234L631.524,282.809C631.524,282.809 618.384,306.7 618.782,340.148L612.012,340.945L610.021,334.574L570.6,309.089L554.673,329.795C554.673,329.795 555.867,313.868 543.523,310.682C531.179,307.497 514.057,312.673 514.455,314.664C514.455,314.664 541.93,322.23 557.46,343.334L574.184,323.424C574.184,323.424 598.474,344.927 602.456,355.28C602.456,355.28 609.623,346.52 615.596,348.112L615.435,348.212ZM212.989,603.32L212.518,604.262C231.36,642.417 264.804,659.374 264.804,659.374C246.433,643.359 238.425,615.096 238.425,615.096C222.41,616.038 212.989,603.32 212.989,603.32ZM328.867,831.307L341.114,829.894C341.114,829.894 357.601,817.647 367.493,817.647C377.385,817.647 341.114,817.647 334.519,813.879C327.925,810.11 290.712,813.879 284.117,820.002C284.117,820.002 315.677,818.118 328.867,831.307ZM175.776,523.241L175.776,548.678C175.776,548.678 187.552,567.991 213.931,568.933C213.931,568.933 217.228,557.157 210.162,551.504C210.162,551.504 196.031,550.562 175.776,523.241ZM201.334,452.241C201.269,451.555 201.212,451.171 201.212,451.171L200.27,451.642C200.63,451.834 200.984,452.034 201.334,452.241ZM201.334,452.241C201.729,456.422 202.444,471.813 192.734,479.905C192.734,479.905 221.939,503.457 224.294,525.596C224.294,525.596 227.505,467.797 201.334,452.241ZM465,786.558C465,786.558 475.834,786.558 479.132,777.137C479.132,777.137 465.942,777.608 465,786.558ZM292.125,736.155L283.646,744.163C283.646,744.163 299.191,782.789 334.519,795.508C334.519,795.508 361.84,797.392 372.674,795.508C372.674,795.508 384.922,802.102 386.806,815.292C386.806,815.292 408.003,816.705 410.358,836.489L474.421,836.96C474.421,836.96 494.676,814.35 514.46,806.813L502.213,790.797C502.213,790.797 486.668,794.566 481.958,803.516C481.958,803.516 468.297,798.334 461.703,799.276C455.108,800.218 403.764,787.971 379.74,762.534C355.717,737.098 350.064,717.314 316.149,722.024C316.149,722.024 314.264,752.642 351.006,754.526C351.006,754.526 354.775,771.955 374.559,778.55L377.385,788.442C377.385,788.442 356.188,796.921 344.411,781.847C344.411,781.847 301.546,783.26 292.125,736.627L292.125,736.155ZM461.232,765.361C526.708,750.287 537.542,801.631 537.542,801.631L554.028,799.747C525.294,736.155 461.232,765.361 461.232,765.361ZM290.712,680.572C274.225,687.637 260.094,670.209 260.094,670.209C265.746,690.464 304.843,695.174 304.843,695.174L290.712,680.572Z" style="fill:white;"/>
                </g>
                <g transform="matrix(1.02954,0,0,1.02954,-11.8341,14.7789)">
                    <path d="M632.884,337.843L935.091,337.843C935.091,337.843 1020.85,340.905 1035.15,409.311C1049.44,477.716 1008.6,502.219 996.35,517.534L996.35,531.454C996.35,531.454 1057.66,562.224 1057.66,624.583L1057.66,690.224C1057.66,690.224 1039.2,804.276 954.685,804.276L668.735,804.276L668.735,775.148L700.735,775.148C700.735,775.148 723.094,775.558 723.094,752.789L723.094,405.095C723.094,405.095 722.889,374.325 671.607,374.325L662.581,374.325C662.581,374.325 646.698,357.095 633.16,357.095L632.884,337.843ZM803.309,522.35L803.309,748.592C803.309,748.592 806.185,765.848 822.961,765.848C839.738,765.848 949.504,781.666 982.098,698.742C982.098,698.742 992.643,631.157 977.784,612.943C962.925,594.728 971.553,583.224 909.24,559.258C909.24,559.258 829.658,546.503 803.309,522.35ZM805.706,387.179L804.747,465.31C833.507,500.301 921.224,503.177 921.224,503.177C921.224,503.177 928.012,499.593 949.983,472.02C974.429,441.343 964.363,434.154 964.363,416.898C964.363,399.642 942.793,387.179 942.793,387.179L805.706,387.179Z" style="fill:white;"/>
                </g>
            </g>
        </g>
    </g>
    <g id="Layer2">
    </g>
</svg>
