<?xml version="1.0" encoding="UTF-8" standalone="no"?>
<!DOCTYPE svg PUBLIC "-//W3C//DTD SVG 1.1//EN" "http://www.w3.org/Graphics/SVG/1.1/DTD/svg11.dtd">
<svg width="100%" height="100%" viewBox="0 0 300 300" version="1.1" xmlns="http://www.w3.org/2000/svg" xmlns:xlink="http://www.w3.org/1999/xlink" xml:space="preserve" xmlns:serif="http://www.serif.com/" style="fill-rule:evenodd;clip-rule:evenodd;stroke-linejoin:round;stroke-miterlimit:2;">
    <rect id="Artboard1" x="0" y="0" width="300" height="300" style="fill:none;"/>
    <clipPath id="_clip1">
        <rect id="Artboard11" serif:id="Artboard1" x="0" y="0" width="300" height="300"/>
    </clipPath>
    <g clip-path="url(#_clip1)">
        <g id="S2" transform="matrix(1.21216,0,0,1.21216,-958.558,-802.186)">
            <g transform="matrix(0.943832,0,0,0.943832,230.297,202.021)">
                <path d="M724.951,487.12C797.313,487.12 856.061,545.869 856.061,618.23C856.061,690.592 797.313,749.34 724.951,749.34C652.59,749.34 593.841,690.592 593.841,618.23C593.841,545.869 652.59,487.12 724.951,487.12ZM724.951,505.181C662.558,505.181 611.902,555.837 611.902,618.23C611.902,680.624 662.558,731.279 724.951,731.279C787.345,731.279 838.001,680.624 838.001,618.23C838.001,555.837 787.345,505.181 724.951,505.181Z" style="fill:rgb(0,147,128);"/>
            </g>
            <g transform="matrix(4.33271,0,0,4.13431,-3441.99,-4320.13)">
                <g transform="matrix(24,0,0,24,1025.13,1243.34)">
                </g>
                <text x="984.716px" y="1243.34px" style="font-family:'MADEOuterSans-Black', 'MADE Outer Sans';font-weight:900;font-size:24px;fill:rgb(0,147,128);">S2</text>
            </g>
        </g>
    </g>
</svg>
