<?xml version="1.0" encoding="UTF-8" standalone="no"?>
<!DOCTYPE svg PUBLIC "-//W3C//DTD SVG 1.1//EN" "http://www.w3.org/Graphics/SVG/1.1/DTD/svg11.dtd">
<svg width="100%" height="100%" viewBox="0 0 1080 1080" version="1.1" xmlns="http://www.w3.org/2000/svg" xmlns:xlink="http://www.w3.org/1999/xlink" xml:space="preserve" xmlns:serif="http://www.serif.com/" style="fill-rule:evenodd;clip-rule:evenodd;stroke-linejoin:round;stroke-miterlimit:2;">
    <g transform="matrix(0.718413,0,0,0.718413,3.4894,-176.725)">
        <g id="Layer1">
            <g>
                <g id="pB0WA5CtX" transform="matrix(1,0,0,1,-3.1,-1.3)">
                    <path d="M746.5,1586.7C745,1584.9 741.1,1578.3 737.8,1572C729.2,1555.5 716.3,1532.6 711.9,1525.6C709.7,1522.4 708,1519.3 708,1518.8C708,1518.4 705,1512.5 701.3,1505.7C697.7,1499 693,1490.4 691,1486.5C688.9,1482.7 683.8,1473.7 679.5,1466.5C675.3,1459.4 670.5,1451 669.1,1448C667.6,1445 665.2,1440.6 663.7,1438.4C662.3,1436.1 658.4,1429.1 655.2,1422.9C647.9,1408.9 638.3,1391.4 636,1388C635.1,1386.6 630.8,1379 626.5,1371C622.2,1363 617.5,1354.5 616,1352C614.5,1349.5 612.4,1345.4 611.3,1342.9C610.2,1340.4 606.6,1334.1 603.3,1328.9C600,1323.7 595,1315 592.3,1309.5C587.4,1299.6 585.8,1296.7 576.6,1280.1C574.1,1275.5 572,1271.6 572,1271.3C572,1271.1 570.7,1269 569.2,1266.7C567.6,1264.4 563.5,1257.1 560.1,1250.5C556.6,1243.9 553,1237.4 552,1236C551,1234.6 547.6,1228.3 544.3,1222C541,1215.6 536.9,1208.5 535.2,1206.1C533.4,1203.7 532,1201.2 532,1200.5C532,1199.5 525.7,1187.3 521.9,1181C521.4,1180.2 519.3,1176.6 517.1,1173C515,1169.4 510.9,1162 508,1156.6C505.1,1151.1 501.8,1145 500.5,1143C499.2,1141 496.6,1136.1 494.5,1132C492.5,1128 488.8,1121.5 486.4,1117.6C479.9,1107.2 472.1,1094.2 469,1088.5C467.5,1085.8 464.3,1079.9 462,1075.5C459.6,1071.1 456.1,1065.4 454.3,1062.8C452.4,1060.2 449.3,1055 447.4,1051.3C445.4,1047.6 442.4,1042.3 440.6,1039.5C438.8,1036.8 434.5,1029.1 431,1022.5C427.6,1015.9 422.9,1007.4 420.6,1003.7C418.4,999.9 415.2,994.5 413.5,991.7C411.9,988.8 409.2,984.6 407.7,982.2C406.1,979.8 404.6,977.1 404.2,976.2C403.9,975.3 399.5,967.7 394.5,959.5C389.5,951.2 384,941.4 382.3,937.7C380.5,934 378,929.5 376.6,927.8C375.3,926 371.6,919.6 368.4,913.5C365.3,907.5 360.6,899.4 358,895.5C355.5,891.7 351.6,885.1 349.6,881C347.5,876.9 344.5,871.7 342.9,869.6C341.3,867.4 340,865.2 340,864.7C340,864.3 337.5,859.6 334.5,854.4C331.5,849.1 329,844.7 329,844.5C329,844.3 327.2,841.5 324.9,838.3C322.7,835.1 319.1,828.9 317,824.5C314.8,820.1 311.6,814 309.7,811C302.5,799.5 287.1,773.3 284.5,768.1C283,765.1 280.3,760.4 278.4,757.7C276.5,755 275,752.2 275,751.5C275,750.9 273.1,747.4 270.8,743.9C266.2,736.8 260.6,727.1 255,716.5C252.9,712.6 249.2,706.2 246.6,702.3C244.1,698.4 242,694.8 242,694.3C242,693.8 240.1,690.3 237.9,686.5C235.6,682.6 232.8,677.9 231.7,676C230.6,674.1 227.1,668 224,662.5C220.9,657 216.7,650.1 214.7,647.1C212.7,644.2 211,641.2 211,640.5C211,639.9 209.7,637.5 208.2,635.4C206.7,633.3 203.2,627.5 200.5,622.5C187.2,597.7 180.9,586.9 175.6,579.5C174.4,577.9 172.8,575.3 172,573.8C171.3,572.3 170,570.2 169.1,569.3C166.7,566.7 156.3,553.9 150.7,546.7C145.8,540.4 126.8,519.7 121.6,515.1C120.1,513.7 112.4,506.7 104.6,499.5C96.8,492.4 88.9,485.3 87.1,483.9L83.7,481.4L83.8,445.1C83.8,418.6 84.2,408.5 85.1,407.4C86.1,406.2 95.5,406 149.9,406.2L213.5,406.5L214.1,413.5C214.7,420.8 219.1,431.9 224.9,440.4C226.4,442.7 229.8,448.6 232.5,453.5C235.1,458.5 237.9,463.2 238.6,464C239.9,465.5 251.5,486.9 259.2,502C263.5,510.3 265.7,514.3 271.3,523.1C273.4,526.5 277.4,533.7 280.1,539.3C282.9,544.9 285.8,550.2 286.5,551C287.2,551.8 291.2,559.2 295.4,567.3C299.6,575.5 303.8,583.3 304.9,584.8C305.9,586.3 307.9,589.8 309.4,592.5C310.8,595.3 313.9,600.4 316.1,604C318.4,607.6 322.8,615.5 326,621.5C329.2,627.6 333.6,635.7 335.8,639.5C337.9,643.4 342.1,651 345,656.5C347.9,662 351.5,668.3 353,670.5C354.5,672.7 358,679.1 360.7,684.6C363.5,690.2 367.6,697.5 369.9,700.8C372.1,704.2 374,707.2 374,707.5C374,708.8 383.2,726.4 385.9,730.4C387.5,732.7 390.1,737.3 391.8,740.8C393.6,744.3 395.8,748.4 396.9,749.8C397.9,751.3 401.6,758.1 405,765C408.4,771.9 412.7,779.6 414.6,782.3C416.5,784.9 418,787.2 418,787.4C418,787.6 420.1,791.5 422.7,796.1C425.2,800.7 429,807.7 431,811.5C433.1,815.4 436.9,822.6 439.5,827.5C442.2,832.5 444.9,837.2 445.6,838C446.3,838.8 450.4,846.4 454.9,854.8C459.3,863.2 463.8,871.3 464.8,872.8C465.9,874.3 468.9,879.6 471.5,884.5C474.1,889.5 477.5,895.3 479,897.5C480.4,899.7 483.4,905.1 485.4,909.5C487.5,913.9 491.4,921.1 494.1,925.6C496.8,930 499.9,935.6 501,938.1C502.1,940.5 505.2,946.1 508,950.5C510.8,954.9 514.5,961.4 516.2,965C519.9,972.7 527.8,986.9 529.6,989C530.3,989.8 533.8,996.4 537.5,1003.5C541.2,1010.7 544.7,1017.2 545.5,1018C546.2,1018.8 548.7,1023.3 551,1028C553.3,1032.7 557.3,1039.6 559.8,1043.5C562.2,1047.3 565.7,1053.6 567.5,1057.5C569.2,1061.3 572.2,1067 574.2,1070C576.1,1073 580.7,1081.4 584.4,1088.5C588.2,1095.7 592,1102.4 593,1103.5C593.9,1104.6 596.8,1109.6 599.2,1114.5C604.1,1124.3 607.7,1130.8 609.1,1132.6C609.7,1133.3 612.8,1139.1 616.1,1145.6C619.5,1152.2 622.8,1158.2 623.5,1159C624.2,1159.8 626.3,1163.7 628.3,1167.6C630.2,1171.5 634.2,1178.7 637.3,1183.6C640.3,1188.5 644.9,1196.8 647.5,1202C650.1,1207.2 652.8,1212.2 653.5,1213C654.3,1213.8 658,1220.4 661.8,1227.5C665.6,1234.7 669.7,1242.3 671,1244.5C675.8,1252.7 681.4,1262.7 684.5,1268.5C686.3,1271.8 689.3,1277.2 691.2,1280.6C693.1,1283.9 695.9,1289.1 697.3,1292.1C698.8,1295.1 701.1,1299.3 702.5,1301.5C703.9,1303.7 706.4,1308.1 708,1311.2C709.7,1314.4 714.4,1322.9 718.5,1330C722.6,1337.2 727.6,1346.3 729.6,1350.3C731.6,1354.3 733.8,1358.2 734.5,1359C735.3,1359.8 738.4,1365.5 741.5,1371.5C744.7,1377.6 748.9,1385.2 750.8,1388.5C754,1393.9 758.2,1401.8 764.2,1413.5C765.4,1415.7 767.3,1418.9 768.5,1420.5C769.7,1422.2 773.5,1428.9 777,1435.5C780.4,1442.1 783.8,1448.2 784.5,1449C785.1,1449.8 787,1453 788.6,1456C794.2,1466.9 803.1,1482.6 805.3,1485.3L807.5,1488.1L803.1,1496.3C800.6,1500.8 797,1507 795,1510.1C793,1513.2 790.8,1517.1 790.2,1518.8C789.6,1520.6 787.2,1524.8 784.8,1528.2C782.4,1531.7 778.4,1538.8 776,1544C773.5,1549.2 769.7,1556.4 767.5,1560C765.2,1563.6 761,1571.2 758.1,1577C750.5,1592 750.6,1591.9 746.5,1586.7Z" style="fill:white;fill-rule:nonzero;"/>
                </g>
                <g id="pa42buHoj" transform="matrix(1,0,0,1,-3.1,-1.3)">
                    <path d="M815.8,1467.3C815,1466.3 812.6,1462.2 810.6,1458.2C808.6,1454.1 805.8,1449.1 804.6,1447.1C803.3,1445.1 800.5,1440 798.5,1435.9C796.4,1431.9 793.5,1426.7 792,1424.5C790.5,1422.3 786.7,1415.6 783.5,1409.5C780.4,1403.5 775.9,1395.4 773.5,1391.5C771.2,1387.7 767.2,1380.5 764.5,1375.5C752.3,1352.6 744.2,1338.2 741.6,1334.5C740.5,1332.9 736.6,1325.7 732.9,1318.5C726.2,1305.2 714.6,1284.3 710.5,1278C709.3,1276.1 705.7,1269.8 702.6,1264C699.5,1258.2 694.7,1249.7 692,1245C689.3,1240.3 687,1235.6 687,1234.5C687,1233.4 689.1,1228.9 691.7,1224.5C696.6,1216.1 705.2,1200.6 707.8,1195.5C708.6,1193.9 709.9,1191.8 710.5,1191C711.8,1189.5 716.6,1180.9 722.5,1169.4C724.2,1166 726.6,1162 727.7,1160.4C728.8,1158.8 732.3,1152.3 735.5,1146C738.7,1139.7 742.1,1133.2 743.2,1131.7C744.3,1130.2 746.6,1126.3 748.4,1123.1C750.1,1120 754.4,1112.2 757.9,1105.9C763.9,1095 770.4,1083.1 782.9,1060C786.1,1054.2 791.5,1044.8 794.9,1039C798.4,1033.3 802.3,1026.3 803.6,1023.5C804.9,1020.8 807.9,1014.9 810.3,1010.5C812.7,1006.1 815.8,1000.5 817.1,998C822.5,988.2 830.4,974.4 831.6,973C832.3,972.2 835,967.2 837.8,962C842.4,953.2 849.8,939.5 861,919C872,898.6 878.6,887.3 880.7,884.7C882,883.1 883,881.1 883,880.1C883,879.2 884.6,875.7 886.6,872.4C891.9,863.8 893.9,860.2 897.3,853.5C899,850.2 902.2,844.4 904.5,840.5C906.8,836.7 911.3,828.8 914.5,823C921.2,810.6 924.8,804.2 930.7,794C933,789.9 937,782.3 939.6,777.1C942.2,771.9 945.5,765.9 947,763.6C948.6,761.3 951.5,756.1 953.5,752C955.6,747.9 958.3,743.1 959.6,741.3C960.9,739.6 962,737.7 962,737.2C962,736.7 964.1,732.8 966.8,728.4C969.4,724.1 973.3,717.1 975.4,713C977.6,708.9 983.1,698.8 987.7,690.7C992.3,682.5 996,675.6 996,675.3C996,675 996.9,673.6 997.9,672.1C999,670.6 1002.6,664 1006,657.5C1009.5,650.9 1013.9,642.8 1016,639.5C1018,636.2 1021.4,630.1 1023.5,626C1025.6,621.9 1028.3,617.2 1029.5,615.5C1030.7,613.9 1033.6,608.6 1035.9,603.7C1038.2,598.9 1042.4,591.3 1045.2,586.7C1048,582.2 1052.5,574.2 1055.3,569C1058,563.8 1061.7,557 1063.5,554C1065.3,551 1069.3,543.6 1072.5,537.5C1075.7,531.5 1078.8,525.8 1079.5,525C1080.2,524.2 1083.6,518.1 1087,511.5C1090.5,504.9 1094.1,498.6 1095,497.5C1095.9,496.4 1099.7,489.8 1103.3,482.9C1106.9,476 1110.9,468.5 1112.2,466.4C1113.5,464.3 1116,459.5 1117.7,455.9C1119.4,452.2 1123,445.9 1125.7,441.9C1128.4,437.8 1132.4,431 1134.4,426.7C1137.8,419.9 1138.2,418.3 1137.8,413.5C1137.5,410 1137.8,407.6 1138.5,407C1139.2,406.4 1192.1,406.2 1277.6,406.3L1415.5,406.5L1415.8,442C1415.9,461.5 1415.8,478.5 1415.5,479.7C1415.2,481.1 1411.9,484 1407,487.2C1397.3,493.7 1377.3,512.3 1367.7,523.9C1363.7,528.6 1358.2,535.2 1355.3,538.5C1345.7,549.5 1343.4,552.4 1333.1,566C1327.5,573.4 1320.7,582.2 1318,585.5C1309.2,596.1 1294.6,618 1291.1,625.8C1290.5,627 1287.2,632.9 1283.8,638.8C1280.4,644.7 1276.6,651.5 1275.4,654C1274.2,656.6 1272.5,659.2 1271.6,659.9C1270.7,660.6 1270,661.8 1270,662.4C1270,663.1 1267.5,667.6 1264.4,672.6C1261.2,677.5 1257.6,684 1256.2,687C1253.2,693.4 1247.4,703.6 1245,706.5C1244.1,707.6 1241.9,711.4 1240,715C1238.2,718.6 1235.5,723.3 1234,725.5C1232.5,727.7 1229.4,733.3 1227,738C1224.7,742.7 1222.5,747 1222,747.5C1221.6,748.1 1220.1,750.5 1218.8,753C1217.4,755.5 1213,763.1 1208.9,770C1204.9,776.9 1200.4,784.8 1199,787.5C1193.4,797.9 1182.6,816.7 1180,820.5C1178.5,822.7 1175.8,827.4 1174,831C1172.2,834.6 1169.3,839.8 1167.5,842.6C1165.7,845.4 1162.1,851.9 1159.4,857.1C1156.8,862.3 1153.4,868.3 1151.9,870.6C1147.5,877.1 1135.8,897.5 1129.1,910.3C1125.7,916.8 1120.4,926.2 1117.2,931.3C1114.1,936.4 1110.6,942.5 1109.4,945C1108.2,947.5 1105.7,951.5 1103.9,954C1102.1,956.5 1098.2,963.2 1095.2,969C1092.2,974.8 1086.9,984.3 1083.4,990.3C1079.9,996.2 1077,1001.2 1077,1001.4C1077,1001.6 1074.4,1006 1071.3,1011.1C1068.2,1016.3 1064.4,1023.1 1062.8,1026.3C1061.3,1029.4 1058,1035.3 1055.6,1039.3C1053.2,1043.2 1048.9,1051 1046.1,1056.5C1043.3,1062 1039.8,1068.3 1038.5,1070.5C1035.2,1075.8 1022.5,1098.8 999.9,1140.4C997.3,1145.3 994.4,1150 993.7,1150.9C992.9,1151.8 989.1,1158.6 985.2,1166.1C981.3,1173.6 976.7,1181.9 975.1,1184.6C973.4,1187.3 969.1,1195.3 965.4,1202.5C961.8,1209.6 957.8,1216.8 956.6,1218.5C955.3,1220.1 952.6,1224.9 950.5,1229C948.4,1233.1 945,1239.2 943,1242.5C941,1245.8 937.4,1252.3 935.1,1257C932.7,1261.7 929.8,1266.8 928.6,1268.5C927.5,1270.1 925,1274.4 923.2,1278C921.3,1281.6 918.1,1287.7 916,1291.5C913.9,1295.4 911.1,1300.5 909.7,1303C898.1,1324.5 893.6,1332.7 892.8,1333.7C892.3,1334.3 889.7,1339.1 887.1,1344.2C884.4,1349.3 880.9,1355.8 879.1,1358.5C877.4,1361.3 875,1365.8 873.7,1368.5C872.4,1371.3 869.5,1376.5 867.2,1380C865,1383.6 859.2,1393.7 854.4,1402.5C849.6,1411.3 843.4,1422.8 840.5,1428C837.6,1433.2 831.6,1444.3 827.1,1452.5C822.5,1460.8 818.5,1467.8 818.1,1468.3C817.7,1468.7 816.7,1468.2 815.8,1467.3Z" style="fill:white;fill-rule:nonzero;"/>
                </g>
                <g id="p4DZy3JN4" transform="matrix(1,0,0,1,-3.1,-1.3)">
                    <path d="M671.4,1207.3C669.4,1203.6 665.1,1196.2 662,1191C658.8,1185.8 654,1176.9 651.2,1171.3C648.4,1165.8 645,1159.4 643.7,1157.3C642.3,1155.1 639.1,1149.3 636.6,1144.3C634.1,1139.2 631.6,1134.9 631.1,1134.5C630.5,1134.2 626.9,1128 623,1120.7C619.1,1113.5 614.3,1104.8 612.3,1101.5C610.3,1098.2 606.8,1091.9 604.5,1087.5C595.1,1069.7 582.8,1047.5 580.1,1043.6C578.5,1041.4 575.3,1035.7 573,1031C570.7,1026.3 566.8,1019.2 564.4,1015.2C561.9,1011.3 558.7,1005.2 557.1,1001.7C555.5,998.2 552.9,993.4 551.3,991C549.6,988.5 545.9,982 543,976.5C540.1,971 536.3,964.3 534.5,961.5C532.7,958.8 529.3,952.7 527,948C524.7,943.3 521.5,937.7 520.1,935.5C518.6,933.3 515.5,927.8 513.2,923.3C511,918.8 506.7,911.2 503.7,906.3C500.7,901.5 495.3,891.9 491.7,885C482.3,866.7 473.3,850.3 471.2,847.2C470.1,845.7 466.7,839.6 463.5,833.5C460.3,827.5 456.5,820.7 455,818.5C453.5,816.3 450.1,810.2 447.5,805C444.9,799.8 441.5,793.7 440,791.5C438.5,789.3 435.6,784.2 433.6,780.2C431.6,776.2 427.1,768.1 423.6,762.2C420.1,756.3 415.8,748.6 414,745C412.2,741.4 409.5,736.7 408,734.5C406.5,732.3 402.3,724.7 398.5,717.5C394.8,710.4 390.1,701.6 388,698C380.6,685.2 371.1,668.2 363,653C354.3,636.8 347,623.9 340.4,613C338.2,609.4 335.1,603.8 333.6,600.5C332.1,597.2 328.4,590.5 325.6,585.5C322.7,580.6 320,575.7 319.7,574.8C319.3,573.8 317.5,570.5 315.5,567.5C313.6,564.4 312,561.7 312,561.4C312,561 310,557.5 307.6,553.5C305.2,549.6 302.3,544.3 301.2,541.7C300.1,539.2 297,533.6 294.4,529.3C291.7,525 287.3,517.2 284.4,512C270.5,486.4 263.6,473.9 259.8,468C257.6,464.4 254.7,459.2 253.5,456.4C252.2,453.6 250,449.7 248.6,447.6C247.2,445.5 243.3,438.5 240,431.9C234.1,420.4 233.9,419.8 234.2,413.2L234.5,406.5L369,406.3C450.1,406.1 504.1,406.4 505,407C506,407.6 506.4,409.6 506.2,414.4C506,420.1 506.2,421.1 508.3,423.2C509.6,424.5 512.6,429.1 515,433.5C517.3,437.9 521.9,445.8 525.1,451.1C528.3,456.5 531.3,461.6 531.7,462.6C532,463.7 535.7,470.1 539.8,476.9C543.8,483.6 549.2,493.3 551.7,498.4C554.2,503.4 557.5,509.3 558.9,511.5C560.4,513.7 563.1,518.4 565,522C566.8,525.6 570.1,531.3 572.2,534.8C574.3,538.2 576,541.4 576,541.8C576,542.2 577.6,544.5 579.5,546.9C581.4,549.3 583,551.7 583,552.3C583,552.9 586.1,558.8 589.9,565.4C593.7,572.1 598.2,580.4 600,584C601.8,587.6 604.7,592.5 606.4,595C608.1,597.5 611.1,602.4 612.9,606C614.8,609.6 619.6,617.9 623.5,624.5C627.5,631.1 631.7,638.5 632.9,641C635.9,647.3 640,654.6 644.1,661C646,664 648.2,667.9 649,669.5C649.8,671.2 651.2,673.7 652.2,675.1C654.8,679.1 665.3,698 667.9,703.6C669.2,706.3 671.5,710.1 672.9,712C674.4,713.9 677.8,719.6 680.5,724.5C683.2,729.5 686.4,734.9 687.6,736.5C688.8,738.2 691.7,743.5 693.9,748.3C696.1,753.1 699.1,758.5 700.5,760.4C701.9,762.2 703,764.1 703,764.7C703,765.3 703.9,766.8 704.9,768.2C706,769.6 708.6,774 710.8,778.1C712.9,782.2 716.5,788.4 718.7,792C720.9,795.6 724.7,802.3 727.2,807C733.2,818.3 733,818 739.9,829.6C743.3,835.1 746,840.1 746,840.7C746,841.3 746.9,842.9 748.1,844.4L750.2,847L752,844.7C753.1,843.4 756.1,838.1 758.8,832.9C765.2,820.6 768.4,814.9 773.5,807C775.8,803.4 779.2,797.4 780.9,793.7C782.7,790 786.4,783.2 789.2,778.7C792,774.2 796.5,766.2 799.3,761C802,755.8 806.1,748.9 808.2,745.8C810.3,742.6 813,738.1 814,735.8C815.1,733.4 818.1,728.1 820.6,724C823.2,719.9 828.5,710.4 832.5,703C842.2,684.9 847.9,674.9 853.2,666.5C855.7,662.7 860.3,654.6 863.4,648.7C866.5,642.7 870.7,635.5 872.6,632.5C874.4,629.5 876,626.7 876,626.2C876,625.7 877.2,623.5 878.7,621.4C880.2,619.3 883,614.6 885,611C887,607.4 889.6,602.9 890.7,601C891.8,599 894.6,593.9 897,589.5C899.3,585.1 901.8,580.8 902.6,580C903.3,579.2 905.7,574.7 908,570C910.3,565.3 913.3,560.1 914.6,558.3C915.9,556.6 917,554.8 917,554.5C917,554.1 919.4,549.9 922.3,545.2C925.3,540.4 929,533.8 930.5,530.5C932.1,527.2 935.6,521.2 938.2,517.1C940.8,513.1 943,509.2 943,508.5C943,507.4 948.4,499.4 951.8,495.5C952.3,494.9 955.7,488.4 959.5,481C963.2,473.6 967,466.4 968,465C969,463.6 971.4,459.1 973.5,455C975.6,450.9 979.8,443.5 983,438.5C991.6,425 992,423.9 992.2,415.5C992.3,409.3 992.6,407.7 994.1,407C996,405.9 1114.7,405.6 1117.3,406.6C1118.5,407 1118.6,408.5 1118.2,413.7C1117.6,421.2 1112.5,432.6 1102.4,449.2C1099.3,454.3 1095.3,461.5 1093.4,465.2C1091.6,468.8 1087.8,475.6 1085.2,480.2C1082.5,484.8 1078.2,492.3 1075.8,497C1070.1,507.6 1063.5,519.5 1058.5,528C1056.4,531.6 1051.3,540.6 1047.2,548C1043.2,555.4 1038.4,564 1036.7,567C1035,570 1031.6,576.3 1029.2,581C1026.7,585.7 1022.1,593.8 1019,599C1015.9,604.2 1012.3,610.5 1011.1,613C1009.9,615.5 1007.7,619.8 1006.1,622.5C1004.5,625.3 1001,631.6 998.3,636.5C995.6,641.5 992.5,647.1 991.3,649C990.2,650.9 985.2,659.9 980.1,669C975.1,678.1 970.5,686.2 970,687C969.5,687.8 966.5,693.2 963.4,699C960.3,704.8 956.3,712 954.5,715C952.7,718 948.8,725.2 945.7,731C942.5,736.8 938.7,743.8 937,746.5C935.4,749.3 933,753.5 931.7,756C927.4,764.2 923.4,771.4 919.7,777.8C917.6,781.3 916,784.5 916,784.9C916,785.2 914.9,787.1 913.6,789C912.4,790.9 908.9,797 906,802.5C903.1,808 899.6,814.2 898.3,816.3C896,820 882.7,843.8 876.8,855C875.2,858 873.5,860.9 873,861.5C872.6,862 869.6,867.5 866.5,873.5C863.3,879.6 859.5,886.3 858,888.5C856.5,890.7 853.8,895.3 852.1,898.8C850.4,902.2 847.1,908 845,911.6C842.8,915.2 839.2,921.6 837.1,925.8C835,930 831.6,936.4 829.5,940C825.2,947.4 821.8,953.4 806.5,981C788.8,1013 782.5,1024.3 780,1028.5C778.7,1030.7 775.8,1036.1 773.5,1040.5C771.2,1044.9 767.5,1051.4 765.2,1055C763,1058.6 759.7,1064.7 757.9,1068.5C756.1,1072.4 753.6,1076.9 752.4,1078.5C751.2,1080.2 749.3,1083.3 748.2,1085.5C742.9,1096.1 737.5,1105.8 735.3,1108.3C734.1,1109.9 733,1111.5 733,1112C733,1113 719.4,1138.5 717,1142C716,1143.4 713,1148.9 710.1,1154.3C707.3,1159.7 702.7,1167.8 700,1172.4C697.2,1177 695,1181.2 695,1181.8C695,1182.3 693.3,1185.2 691.3,1188.1C689.3,1191.1 685.3,1198 682.5,1203.4C679.6,1208.9 676.9,1213.5 676.3,1213.7C675.7,1213.9 673.5,1211.1 671.4,1207.3Z" style="fill:white;fill-rule:nonzero;"/>
                </g>
                <g transform="matrix(1,0,0,1,-3.1,-1.3)">
                    <path id="pERyeApbK" d="M729,1670.6L711.5,1666.4L700.9,1658.7C691.7,1652.1 689.3,1649.7 682.6,1640.5C678.3,1634.7 670.4,1622 665,1612.2C632.9,1553.9 623,1536.1 621.2,1533C620.1,1531.1 611.9,1516.2 603,1500C594.1,1483.8 584.4,1466.2 581.5,1461C576.5,1452.1 561.6,1425.1 516.5,1343.5C506.2,1324.8 494.3,1303.2 490,1295.5C471.5,1262.1 466.4,1253 451.5,1226C442.8,1210.3 433.6,1193.7 431,1189C428.4,1184.3 424.7,1177.8 422.8,1174.5C420.9,1171.2 412.3,1156.4 403.8,1141.5C395.2,1126.7 381.5,1102.8 373.2,1088.5C354.7,1056.3 317.9,992.4 297.2,956.5C288.7,941.7 280.2,927 278.5,924C276.7,921 270.1,909.5 263.8,898.5C257.5,887.5 248.6,872.1 244.2,864.4C239.7,856.6 236,849.8 236,849.2C236,848.6 235.6,848 235.2,847.8C234.7,847.7 228,836.5 220.3,823C212.5,809.5 199.7,787.3 191.8,773.5C183.9,759.8 171.2,737.7 163.5,724.5C155.9,711.3 143.6,689.9 136.2,677C109.8,630.9 103.5,620.4 98.7,614C84.3,594.7 53,563.2 28.8,543.5C25.2,540.5 19.1,532.8 12.7,522.9C9.9,518.6 8.5,514.3 5.5,501.6L1.8,485.8L1.7,443.1L1.7,400.5L5.7,384.5C9.9,367.8 10.4,366.9 20.7,352.9C23.4,349.2 28.6,344.6 35.5,339.5L46.2,331.8L64.3,327.4L82.5,323L295,323L507.5,323.1L525.6,327.4L543.7,331.6L554.3,339.2C564.8,346.6 566.7,348.6 577.3,363.8C580.6,368.4 585,382 585,387.4C585,388.2 591.9,401 600.3,415.7C608.7,430.5 619.8,449.9 625,459C630.1,468.1 642.6,490.1 652.8,508C663,525.9 676,548.8 681.8,559C687.6,569.2 701.4,593.5 712.5,613C723.6,632.5 733.8,650.5 735.2,653C736.6,655.5 740,661.5 742.9,666.4C745.7,671.3 748,675.6 748,676C748,676.4 748.6,677.3 749.4,678C750.6,678.9 751.3,678.4 753.1,674.8C754.3,672.4 756.7,668 758.5,665C760.3,662 769.3,646.2 778.5,630C798.5,594.8 842.6,517.4 848.3,507.5C850.5,503.7 854,497.6 856,494C863.2,481.6 908.7,401.5 909.8,399.3C910.5,398.2 912.7,390.5 914.8,382.3C918.5,367.9 918.7,367.3 925.4,358C933.1,347.2 934,346.3 947,337.6C956.5,331.2 956.6,331.2 974.3,327.1L992.1,323L1204.8,323L1417.5,323.1L1435.6,327.4L1453.8,331.7L1464.5,339.6C1473.9,346.5 1476.3,348.8 1482.8,357.9C1490.1,368 1490.3,368.6 1493.8,381.9L1497.4,395.5L1497.7,440.8L1498.1,486.1L1494.5,501.8C1491.4,515.2 1490.3,518.3 1487.1,523C1475,540.7 1475.1,540.6 1460.9,550.1C1449.5,557.8 1420,588.8 1403,611C1401.1,613.5 1399.3,615.7 1399,616C1398.6,616.3 1395.5,620.3 1392,625C1388.5,629.7 1383.3,636.4 1380.5,640C1374.9,646.9 1368.6,657.4 1351.8,687C1341.1,705.8 1307.5,764.9 1299.2,779.5C1296.7,783.9 1293.2,790 1291.4,793C1288.4,798.1 1278.8,815 1226.5,907C1215.1,927.1 1204.1,946.4 1202,950C1197.3,958.2 1194.4,963.3 1191.2,969C1189.8,971.5 1183.4,982.7 1177,994C1158.7,1026.1 1132.2,1072.6 1127,1082C1124.4,1086.7 1119.8,1095 1116.8,1100.5C1113.7,1106 1107.9,1116.6 1103.8,1124C1084.5,1158.7 1047.2,1226.1 1028,1261C1016.3,1282.2 1004.8,1302.9 1002.5,1307C997.4,1316.2 999.7,1311.9 928,1441.5C927.1,1443.2 923.5,1449.7 920,1456C914.3,1466.5 902,1488.7 888.5,1513C875.6,1536.3 862.1,1560.7 847,1588C824.7,1628.5 821.6,1633.8 815.2,1641.6C814.7,1642.1 813.1,1644.4 811.7,1646.6C809,1650.5 805.4,1653.6 793,1662.1C787.1,1666.2 785,1667 768.9,1670.8C759.2,1673.1 750.2,1675 748.9,1674.9C747.6,1674.9 738.6,1672.9 729,1670.6ZM763.1,1649.9C774.9,1647 776.7,1646.3 782.8,1641.8C786.5,1639.1 790,1636.5 790.5,1636.2C793,1634.6 803.8,1619.2 808.8,1610C811.9,1604.3 814.1,1600.2 822,1586C824.6,1581.3 834.3,1563.8 843.5,1547C852.7,1530.2 862,1513.6 864,1510C866,1506.4 880,1481.2 895,1454C910,1426.8 924.1,1401.4 926.2,1397.5C931.4,1388.4 948.3,1357.8 975.7,1308C977.1,1305.5 979.2,1301.7 980.5,1299.5C981.7,1297.3 990.2,1281.8 999.5,1265C1008.7,1248.2 1018,1231.6 1020,1228C1022.1,1224.4 1028.8,1212.3 1035,1201C1041.2,1189.7 1048.4,1176.7 1051,1172C1056.3,1162.7 1072.8,1132.8 1082.3,1115.5C1085.6,1109.5 1090.2,1101.1 1092.5,1097C1094.8,1092.9 1099.6,1084.3 1103,1078C1110.3,1064.8 1140.6,1011.2 1145.4,1003C1147.2,1000 1152.6,990.5 1157.5,982C1162.3,973.5 1167.9,963.6 1170,960C1173.5,954 1198.4,910.2 1227.8,858.5C1234.6,846.4 1242.1,833.4 1244.3,829.5C1246.5,825.7 1250.1,819.4 1252.3,815.5C1254.5,811.7 1258,805.6 1260,802C1264.2,794.8 1287.7,753.3 1313.5,708C1322.7,691.8 1331.9,675.6 1334,672C1336.1,668.4 1341.4,659.2 1345.9,651.5C1354.3,636.9 1356.4,633.9 1369.4,616.8C1377.1,606.8 1395.9,583 1397,582C1397.3,581.7 1400,578.6 1403,575C1411.3,565.1 1436.8,539.4 1441.4,536.3C1456,526.4 1459.8,523 1465.3,514.8C1470.3,507.3 1471.2,505.2 1473.9,493.7L1477,480.8L1477,405.5L1473.7,392C1470.6,379.3 1470.1,378.1 1464.7,370.8C1460.9,365.6 1456.4,361.1 1451.2,357.3C1444,352 1442.6,351.4 1430.5,348.3L1417.5,345.1L1205,345L992.5,345L979,348.2C966.1,351.2 965.1,351.6 957.4,357.3C951,361.9 948,365 943.7,371.4C938.7,378.8 938,380.7 935,393C933.3,400.4 931.3,407.4 930.8,408.4C928.5,412.7 923.9,420.9 908.2,448.5C892,477.1 888.2,483.7 880.3,497.5C878,501.4 870.6,514.4 863.8,526.5C846.6,556.8 802.2,634.7 799.7,639C797.6,642.7 794.1,648.7 780.1,673.5C759.2,710.3 750.6,725 750,725C749.6,725 748.8,724 748.3,722.7C747.3,720.5 721.7,675.1 714,662C711.9,658.4 706.4,648.8 701.8,640.5C692.9,624.8 672.5,588.9 641.2,534C631,516.1 619.8,496.3 616.2,490C612.7,483.7 608.1,475.6 606,472C596.5,455.6 569.1,407.1 567.3,403.5C566.2,401.3 564.3,395 563,389.6C561.1,381 560,378.6 555.1,371.5C551.5,366.2 547.8,362 544.6,359.9C541.9,358 539.2,356 538.6,355.5C535.4,352.5 531,350.8 519.5,348L506.8,345L83.5,345L70,348.3C57.3,351.4 56.1,351.9 48.8,357.3C43.6,361.2 39.2,365.6 35.3,370.8C29.9,378.1 29.4,379.2 26.3,392L23.1,405.5L23.1,482.5L26.3,495.6C29.3,507.7 30,509.2 35.3,516.4C38.4,520.7 44.3,527 48.3,530.3C72.7,550.6 93.3,571.4 116.2,598.8C120.2,603.7 134,626.7 150.5,656C155.1,664.1 158.5,670.1 167.5,685.5C170.7,691 176.5,701.1 180.5,708C184.5,714.9 191.1,726.4 195.2,733.5C199.4,740.7 207,753.9 212.2,763C217.4,772.1 225.1,785.4 229.2,792.5C233.3,799.7 243.7,817.7 252.2,832.5C268.2,860.4 277.5,876.5 290.7,899.3C294.9,906.5 300,915.4 302,919C305.7,925.5 311.3,935.2 312.9,938C313.4,938.8 318.8,948.1 324.8,958.5C330.8,969 342.6,989.4 351,1004C359.4,1018.6 367.4,1032.5 368.8,1035C370.1,1037.5 373.4,1043.1 376,1047.5C380.8,1055.6 401.3,1091 408,1103C410,1106.6 414.5,1114.4 418,1120.4C421.5,1126.4 424.3,1131.9 424.3,1132.6C424.3,1133.3 424.6,1133.7 424.9,1133.5C425.6,1133.1 441.7,1161 460.6,1195C463.4,1200.2 477,1224.8 490.7,1249.5C504.4,1274.3 517.6,1298.3 520.1,1303C522.5,1307.7 524.7,1311.7 525,1312C525.5,1312.4 537.3,1333.6 552,1360.5C553.5,1363.3 556.9,1369.3 559.5,1374C562.1,1378.7 566.6,1386.8 569.5,1392C572.3,1397.2 578.2,1407.8 582.5,1415.5C586.7,1423.2 592.9,1434.5 596.3,1440.5C599.6,1446.6 604.4,1455.3 607.1,1460C609.7,1464.7 618.9,1481.3 627.5,1497C636.1,1512.7 645.6,1529.8 648.5,1535C651.4,1540.2 654.7,1546.1 655.7,1548C701.5,1631 701.4,1630.9 713,1639.6C716.9,1642.6 721,1645.4 722,1646C723.8,1647 746.3,1652.8 748.8,1652.9C749.5,1653 755.9,1651.6 763.1,1649.9Z" style="fill:white;fill-rule:nonzero;"/>
                </g>
            </g>
        </g>
    </g>
</svg>
