<?xml version="1.0" encoding="UTF-8" standalone="no"?>
<!DOCTYPE svg PUBLIC "-//W3C//DTD SVG 1.1//EN" "http://www.w3.org/Graphics/SVG/1.1/DTD/svg11.dtd">
<svg width="100%" height="100%" viewBox="0 0 800 800" version="1.1" xmlns="http://www.w3.org/2000/svg" xmlns:xlink="http://www.w3.org/1999/xlink" xml:space="preserve" xmlns:serif="http://www.serif.com/" style="fill-rule:evenodd;clip-rule:evenodd;stroke-linejoin:round;stroke-miterlimit:2;">
    <g id="l2jNiG3rdQxJP8q0uz9nSnX" transform="matrix(1.40329,0,0,1.40329,-160.609,-161.718)">
        <g>
            <path id="p1EidpTF45" d="M174.5,632L116,573.5L116,408L210,408L210,442.8C210,462 210.2,477.9 210.5,478.1C210.7,478.4 226.8,462.7 246.2,443.3L281.5,408L389.5,408L290.5,507L264.5,507L389.5,632L281.5,632L210,560.5L210,632L174.5,632Z" style="fill:white;fill-rule:nonzero;"/>
            <path id="pqYitlKY3" d="M361,576.5C330.5,546 305.5,520.6 305.5,520.1C305.5,519.6 330.4,494.2 360.7,463.6L416,408L595.5,408L680.5,493L541.5,632L416.5,632L361,576.5ZM491.5,574L572.5,493L545.5,466L465.5,466L411.5,520L465.5,574L491.5,574Z" style="fill:white;fill-rule:nonzero;"/>
            <path id="pWzO4E8Ql" d="M124.5,394L277,241.5L270.7,235.2C267.3,231.8 264.2,229 263.9,229C263.7,229 254.4,238 243.4,249L223.4,269L170.2,269C141,269 117,268.7 117,268.2C117,267.8 138.9,245.6 165.8,218.7L214.5,170L313.5,170L348.8,205.3C368.1,224.7 384,241 384,241.5C384,242.1 363.3,263.2 338,288.5C312.7,313.8 292,334.8 292,335.2C292,335.7 303.8,336 318.2,336L344.5,336L371,362.5L458.2,275.3L429.5,240.1C413.8,220.8 400.7,205 400.4,205C400.2,205 405.4,215.8 412.1,229.1C418.7,242.4 424,253.4 423.8,253.6C423.6,253.8 404.5,235 381.5,212L339.5,170L447.5,170L505.5,228L563.5,170L671.5,170L612,229.5C556.5,285 552.7,289 554.1,290.7C555,291.7 568,307.6 583,326C598,344.4 610.7,360 611.2,360.5C611.8,361.1 606.5,350.1 599.5,336.1C592.6,322.2 587,310.6 587.2,310.4C587.4,310.2 606.5,329 629.5,352L671.5,394L563.5,394L505.5,336L447.5,394L124.5,394Z" style="fill:white;fill-rule:nonzero;"/>
        </g>
    </g>
</svg>
