<svg xmlns="http://www.w3.org/2000/svg" width="800" height="800" viewBox="0 0 8000 8000">
  <g id="l2N8VOoqFNDumbJRfcPRCX" fill="rgb(27,29,31)" style="transform: none;">
    <g style="transform: none;">
      <path id="p2wN7x6JX" d="M0 4000 l0 -4000 4000 0 4000 0 0 4000 0 4000 -4000 0 -4000 0 0 -4000z m2070 1935 l0 -355 33 0 c29 0 66 34 387 355 l355 355 480 0 480 0 -593 -593 c-540 -540 -592 -595 -592 -625 l0 -32 128 0 127 0 465 -465 465 -465 -480 0 -480 0 -355 355 c-324 325 -358 356 -385 353 l-30 -3 -3 -352 -2 -353 -440 0 -440 0 0 797 0 798 292 292 293 293 147 0 148 0 0 -355z m3995 -325 l680 -680 -410 -410 -410 -410 -868 0 -867 0 -538 541 c-295 298 -537 545 -537 550 0 5 243 252 540 549 l540 540 595 0 595 0 680 -680z m-1330 -1990 c251 -251 294 -290 320 -290 26 0 69 39 320 290 l290 290 478 -2 477 -3 -306 -305 -306 -305 71 142 c42 84 71 155 71 173 0 29 -2 31 -34 28 -32 -3 -55 -28 -325 -358 -256 -313 -291 -359 -291 -390 0 -33 32 -67 562 -597 l563 -563 -480 0 -480 0 -290 290 c-251 251 -294 290 -320 290 -26 0 -69 -39 -320 -290 l-290 -290 -478 2 -477 3 306 305 306 305 -66 -132 c-37 -75 -66 -146 -66 -163 0 -28 3 -30 34 -30 33 0 46 14 320 350 245 300 286 354 286 382 0 30 -39 72 -433 466 -405 405 -434 432 -467 432 -32 0 -48 -13 -165 -130 l-130 -130 -262 0 -263 0 0 -38 c0 -36 16 -54 450 -487 l450 -450 -342 -342 -343 -343 -465 0 -465 0 -465 465 -465 465 480 0 479 0 200 -200 c241 -240 233 -237 333 -138 50 49 63 69 63 93 0 26 -85 115 -732 762 l-733 733 1555 0 1555 0 290 -290z"></path><path id="ps4BSZzKl" d="M4357 5502 c-247 -247 -267 -270 -267 -302 0 -32 20 -55 267 -302 l268 -268 430 0 430 0 133 133 c119 119 132 136 132 167 0 33 -27 62 -402 437 l-403 403 -160 0 -160 0 -268 -268z"></path></g></g><g id="l2jNiG3rdQxJP8q0uz9nSnX" fill="rgb(205,245,100)" style="transform: none;"><g style="transform: none;"><path id="p1EidpTF45" d="M1452 6027 l-292 -292 0 -828 0 -827 470 0 470 0 0 348 c0 192 2 351 5 353 2 3 163 -154 357 -348 l353 -353 540 0 540 0 -495 495 -495 495 -130 0 -130 0 625 625 625 625 -540 0 -540 0 -357 -357 -358 -358 0 358 0 357 -178 0 -177 0 -293 -293z"></path><path id="pqYitlKY3" d="M3610 5765 c-305 -305 -555 -559 -555 -564 0 -5 249 -259 552 -565 l553 -556 897 0 898 0 425 425 425 425 -695 695 -695 695 -625 0 -625 0 -555 -555z m1710 -430 l405 -405 -135 -135 -135 -135 -400 0 -400 0 -270 270 -270 270 270 270 270 270 130 0 130 0 405 -405z"></path><path id="pWzO4E8Ql" d="M2008 3177 l762 -762 -63 -63 c-34 -34 -65 -62 -68 -62 -2 0 -95 90 -205 200 l-200 200 -532 0 c-292 0 -532 -3 -532 -8 0 -4 219 -226 488 -495 l487 -487 495 0 495 0 353 353 c193 194 352 357 352 362 0 6 -207 217 -460 470 -253 253 -460 463 -460 467 0 5 118 8 262 8 l263 0 132 132 133 133 436 -436 436 -436 -287 -352 c-157 -193 -288 -351 -291 -351 -2 0 50 108 117 241 66 133 119 243 117 245 -2 2 -193 -186 -423 -416 l-420 -420 540 0 540 0 290 290 290 290 290 -290 290 -290 540 0 540 0 -595 595 c-555 555 -593 595 -579 612 9 10 139 169 289 353 150 184 277 340 282 345 6 6 -47 -104 -117 -244 -69 -139 -125 -255 -123 -257 2 -2 193 186 423 416 l420 420 -540 0 -540 0 -290 -290 -290 -290 -290 290 -290 290 -1615 0 -1615 0 763 -763z"></path>
    </g>
  </g>
</svg>