<?xml version="1.0" encoding="UTF-8" standalone="no"?>
<!DOCTYPE svg PUBLIC "-//W3C//DTD SVG 1.1//EN" "http://www.w3.org/Graphics/SVG/1.1/DTD/svg11.dtd">
<svg width="100%" height="100%" viewBox="0 0 1080 1080" version="1.1" xmlns="http://www.w3.org/2000/svg" xmlns:xlink="http://www.w3.org/1999/xlink" xml:space="preserve" xmlns:serif="http://www.serif.com/" style="fill-rule:evenodd;clip-rule:evenodd;stroke-linejoin:round;stroke-miterlimit:2;">
    <g transform="matrix(1.26848,0,0,1.26848,-211.553,-178.267)">
        <g transform="matrix(2.11222,0,0,2.11222,-359.228,-710.547)">
            <path d="M460.219,553.864L534.476,403.274L573.146,428.133L647.724,436.419L649.105,459.898L519.284,578.67L567.621,696.061L497.187,627.008L476.471,624.246L336.982,803.785L438.386,598.141L449.667,599.134C453.62,599.134 457.033,596.319 459.908,590.69C462.064,586.738 464.16,581.468 466.196,574.88C468.232,568.173 469.25,563.502 469.25,560.867C469.25,556.076 466.914,553.681 462.243,553.681C461.894,553.681 461.22,553.742 460.219,553.864ZM545.524,458.517L508.235,513.76L495.806,562.097L596.624,465.422L545.524,458.517Z" style="fill:white;"/>
        </g>
        <g transform="matrix(0.941106,0,0,0.941106,50.5766,30.0789)">
            <g transform="matrix(60.983,0,0,60.983,-20924.8,-28847.3)">
                <path d="M352.123,482.059L352.836,480.615C352.868,480.611 352.89,480.609 352.902,480.609C353.054,480.609 353.13,480.687 353.13,480.843C353.13,480.929 353.097,481.081 353.03,481.3C352.964,481.515 352.896,481.687 352.825,481.816C352.732,481.999 352.62,482.091 352.491,482.091L352.123,482.059Z" style="fill:white;"/>
            </g>
            <g transform="matrix(60.983,0,0,60.983,-20924.8,-28847.3)">
                <path d="M352.123,482.059L351.56,482.009L351.29,482.009C351.06,481.993 350.952,482.101 350.968,482.331L350.968,482.425C350.968,482.687 350.988,483.007 351.027,483.386C351.034,483.456 351.038,483.515 351.038,483.562C351.038,483.734 350.919,483.876 350.681,483.989C350.552,484.048 350.376,484.113 350.154,484.183C349.935,484.253 349.798,484.288 349.743,484.288C349.673,484.288 349.614,484.263 349.568,484.212C349.525,484.157 349.503,484.091 349.503,484.013C349.503,483.978 349.505,483.937 349.509,483.89C349.532,483.581 349.544,483.193 349.544,482.724L349.544,482.331C349.556,482.105 349.448,481.997 349.222,482.009L348.935,482.009C348.466,482.009 348.077,482.021 347.769,482.044C347.722,482.048 347.679,482.05 347.64,482.05C347.566,482.05 347.501,482.029 347.446,481.986C347.396,481.939 347.37,481.884 347.37,481.821C347.37,481.755 347.411,481.603 347.493,481.364C347.579,481.122 347.652,480.948 347.71,480.843C347.812,480.663 347.941,480.573 348.097,480.573C348.144,480.573 348.202,480.577 348.273,480.585C348.687,480.624 348.954,480.642 349.075,480.638L349.234,480.638C349.445,480.638 349.548,480.532 349.544,480.321L349.544,479.941C349.54,479.698 349.517,479.429 349.474,479.132C349.466,479.093 349.462,479.052 349.462,479.009C349.462,478.868 349.583,478.743 349.825,478.634C349.974,478.571 350.146,478.513 350.341,478.458C350.536,478.4 350.675,478.37 350.757,478.37C350.917,478.37 350.997,478.446 350.997,478.599C350.997,478.618 350.991,478.667 350.98,478.745C350.972,478.804 350.968,478.989 350.968,479.302L350.968,480.321C350.972,480.529 351.079,480.634 351.29,480.638L352.198,480.638C352.507,480.638 352.691,480.634 352.749,480.626C352.783,480.621 352.812,480.617 352.836,480.615L352.123,482.059Z" style="fill:white;"/>
            </g>
        </g>
    </g>
</svg>
