<?xml version="1.0" encoding="UTF-8" standalone="no"?>
<!DOCTYPE svg PUBLIC "-//W3C//DTD SVG 1.1//EN" "http://www.w3.org/Graphics/SVG/1.1/DTD/svg11.dtd">
<svg width="100%" height="100%" viewBox="0 0 512 512" version="1.1" xmlns="http://www.w3.org/2000/svg" xmlns:xlink="http://www.w3.org/1999/xlink" xml:space="preserve" xmlns:serif="http://www.serif.com/" style="fill-rule:evenodd;clip-rule:evenodd;stroke-linejoin:round;stroke-miterlimit:2;">
    <g transform="matrix(1.4458,0,0,1.4458,-114.796,-114.608)">
        <g id="l1X0dXhjoQSbqeE6sL28SZt">
            <g>
                <path id="pOLq3Ts7a" d="M258.3,431C252,428.4 253,419.8 259.8,418.4C262.2,417.9 263.4,418.3 265.4,420.3C268.7,423.6 268.7,426.4 265.5,429.5C262.9,432.2 261.8,432.4 258.3,431Z" style="fill:rgb(227,228,229);fill-rule:nonzero;"/>
                <path id="pgVuZs1Xl" d="M258,408.3C257,407.6 255.4,404.6 254.5,401.8C252.3,394.4 252.4,394 255.9,395.3C259.2,396.5 262,395 262,392C262,389.5 260,388.2 255.6,387.8L251.7,387.5L249.6,378C244.9,357.1 240.3,350.9 193.1,302C156.4,264.1 152,258.8 149.9,250.9C147.2,241 154.5,231.7 203.5,182.2C223.2,162.2 241.1,143.6 243.2,140.9C247.8,134.7 250.3,127 253,110.3C255.7,93.6 257.7,86.6 260.6,83.9C262.6,82 263.2,81.9 264.6,83.1C267.6,85.6 269,90.8 270.5,104.3C272.3,119.8 274.4,129.9 277.3,135.5C281.3,143.4 287.7,150.7 316.5,179.8C348.5,212.3 355.4,219.8 357.8,224.8C359.7,228.7 358.7,231.1 354.9,232.1C353.6,232.5 336.6,232.8 317.2,232.9C284,233 281.9,232.9 282.2,231.3C282.5,229.7 284,229.5 293.2,229.2C309,228.8 309.3,227.5 296.8,215.4C280.1,199.2 266.6,190 259.8,190C254,190 248.5,194.3 228.9,213.9C213.7,229.1 208.7,234.8 206.6,239.1C201.6,249.5 203.3,252.6 228.4,277.5C253.5,302.5 259.5,307 268,307C272,307 273.6,306.4 277.8,303.2C287.5,296 300.9,279 304.6,269.4C309,257.8 300.4,254.1 268.3,254C257.3,254 255,253.1 255,248.5C255,243.8 256,243.7 308.6,244.2C354.7,244.7 357.9,244.9 360.3,246.6C361.8,247.7 363.2,249.2 363.6,250C364.9,252.7 365.3,294.6 364.1,296.9C362.1,300.5 359.1,298.9 358.4,293.9C357.3,285.6 356.8,284 355,283C352.5,281.7 347.5,285.6 327,304.3C318.3,312.4 310.9,319 310.6,319C309.5,319 310.1,314.5 311.5,312C312.3,310.6 312.9,307.9 313,306C313,302.9 314.2,301.3 323,292.5C332.6,283 333.1,282.6 337,282.8C339.9,283 341.9,282.5 343.7,281C345.1,279.9 346.9,279 347.7,279C349.9,279 351.6,274.4 350,272.5C349,271.3 348.4,271.2 347.4,272.1C346.6,272.7 346,273.8 346,274.4C346,276.4 341.6,280 339.2,280C338,280 337,279.7 337,279.4C337,279.1 339.5,276.3 342.5,273.2C345.5,270.1 348.3,266.7 348.6,265.7C349.9,261.6 343.4,256.6 339.6,258.7C338.7,259.2 327.8,269.7 315.4,282C295.6,301.6 292.4,304.4 289.9,304.2C287.3,304 287,304.3 287,307.1C287,309.7 285.6,311.7 279.3,318.1C272.3,325.3 271.2,326 267.7,326C263.8,326 260.1,327.4 258.8,329.4C258.4,330 258,332.2 258,334.4L258,338.3L254,337.6C249.5,336.9 248.7,338.1 252.5,339.8C254,340.5 255,341.8 255,343.1C255,345.9 257.3,345 258,341.9C258.6,339.6 259,339.5 266.7,339.4C272.6,339.3 275.7,338.7 277.9,337.4C279.6,336.4 281,335.2 281,334.8C281,334.4 281.9,334 282.9,334C284,334 285.1,333.1 285.5,332.1C285.8,331.1 287,330 288,329.7C289.1,329.4 290,328.4 290,327.5C290,326.6 291.6,324.3 293.6,322.4C296.4,319.8 297.6,319.3 298.6,320.1C300.6,321.8 302.2,320.3 300.9,317.8C300,316.1 300.3,315.3 302.6,312.9C304.1,311.3 305.6,310.3 305.9,310.6C306.2,310.9 307,313.5 307.7,316.3L308.8,321.4L300.3,330.5C285.5,346.1 278,357 275.7,366.3C274.6,370.6 274,371.5 271.9,371.8C267,372.3 265,373.1 265,374.3C265,374.9 266.1,375.6 267.5,375.6C270.4,375.8 273.2,377.8 272.4,379.1C272.1,379.6 270.7,379.7 269.3,379.4C267.5,378.9 266.9,379.1 267.4,379.9C267.8,380.5 268.8,381 269.6,381C270.4,381 271,381.5 271,382.1C271,382.8 269.8,383 267.5,382.6C265.6,382.2 264,382.1 264,382.4C264,383.5 268.8,388 270,388C271.9,388 270.2,398.6 267.4,404.1C264.8,409.2 261.5,410.7 258,408.3ZM246,347.5C246.7,346.6 246.6,345.9 245.5,345C244.7,344.3 244,342.7 244,341.3C244,338.6 241.2,337 240,339C239.3,340.2 239.6,345.5 240.5,348.7C240.9,350.1 244.5,349.3 246,347.5ZM283.3,342.6C284,340.9 283.2,340 280.9,340C279.2,340 277.7,342.3 278.7,343.4C279.9,344.5 282.8,344 283.3,342.6ZM250.8,329.2C251,328.5 250.5,328 249.6,328C248.7,328 248,328.7 248,329.6C248,331.3 250.2,331 250.8,329.2ZM226.3,318.6C227.3,316 223.2,312 219.7,312C217.6,312 216.1,311.3 215.2,310C213.7,307.6 208,307.2 208,309.5C208,310.3 208.7,311 209.5,311C210.3,311 212,312.1 213.2,313.5C214.8,315.3 216.4,316 219.1,316C222,316 223,316.5 223.5,318C224.2,320.3 225.6,320.6 226.3,318.6ZM251.8,318.9C251.6,318.3 251.1,317.9 250.7,317.9C250.3,318 249.3,318 248.5,318C247.7,318 247,318.5 247,319C247,319.6 248.2,320 249.6,320C251,320 252,319.5 251.8,318.9ZM258,316.4C258,316.1 257.6,315 257,314C256.3,312.7 256.4,311.9 257.5,311C259.9,309 259.3,307 256.2,307C250,307 247.7,312.2 252.5,315.1C255.5,316.9 258,317.5 258,316.4ZM236,314.6C236,312.6 234.1,311.5 232.8,312.8C232.2,313.4 232.1,314.3 232.4,314.9C233.4,316.5 236,316.2 236,314.6ZM242.9,308.1C244.1,306.5 246.4,304.9 248,304.5C250.8,303.9 252.4,301 249.9,301C246.9,301 239,307.3 239,309.7C239,311.9 240.7,311.2 242.9,308.1ZM204,282.6C204,281.8 203.6,280.9 203.1,280.5C201.9,279.8 200.7,281.7 201.5,283C202.4,284.5 204,284.2 204,282.6ZM219,278.5C219,277 216.3,275.7 214.9,276.6C213.6,277.3 213.8,279.4 215.2,280.8C216.5,282.1 219,280.6 219,278.5ZM185.4,252.8C187.4,250 187.4,247.1 185.4,244.5C184,242.7 185.9,240.6 220.2,206.3C250.7,175.8 256.9,170 259.3,170C268.1,170 272.1,161.1 264.9,157.5C261.7,155.8 256.3,155.6 252.7,156.9C251.4,157.4 231.6,176.4 208.7,199.2C174.6,233 167,241 167,243.2C167,247.1 176,255 180.6,255C182.9,255 184.4,254.3 185.4,252.8Z" style="fill:rgb(227,228,229);fill-rule:nonzero;"/>
                <path id="pyOH30x5s" d="M359.1,321.1C357.3,319.3 357,317.8 357,311.1C357,306.7 357.4,302.9 357.8,302.6C359,301.9 363.7,306.9 365,310.4C366.3,314 365.4,319.4 363,321.5C361.3,323.1 361,323 359.1,321.1Z" style="fill:rgb(227,228,229);fill-rule:nonzero;"/>
            </g>
        </g>
    </g>
</svg>
