<?xml version="1.0" encoding="UTF-8" standalone="no"?>
<!DOCTYPE svg PUBLIC "-//W3C//DTD SVG 1.1//EN" "http://www.w3.org/Graphics/SVG/1.1/DTD/svg11.dtd">
<svg width="100%" height="100%" viewBox="0 0 512 512" version="1.1" xmlns="http://www.w3.org/2000/svg" xmlns:xlink="http://www.w3.org/1999/xlink" xml:space="preserve" xmlns:serif="http://www.serif.com/" style="fill-rule:evenodd;clip-rule:evenodd;stroke-linejoin:round;stroke-miterlimit:2;">
    <g transform="matrix(1.4458,0,0,1.4458,-114.796,-114.608)">
        <g id="l1X0dXhjoQSbqeE6sL28SZt">
            <g>
                <g id="pgVuZs1Xl" transform="matrix(1.07753,0,0,1.07753,-19.9336,-8.64578)">
                    <path d="M308.274,318.96L308.8,321.4L300.3,330.5C285.5,346.1 278,357 275.7,366.3C274.6,370.6 274,371.5 271.9,371.8C267,372.3 265,373.1 265,374.3C265,374.9 266.1,375.6 267.5,375.6C270.4,375.8 273.2,377.8 272.4,379.1C272.1,379.6 270.7,379.7 269.3,379.4C267.5,378.9 266.9,379.1 267.4,379.9C267.8,380.5 268.8,381 269.6,381C270.4,381 271,381.5 271,382.1C271,382.8 269.8,383 267.5,382.6C265.6,382.2 264,382.1 264,382.4C264,383.5 268.8,388 270,388C271.9,388 270.2,398.6 267.4,404.1C264.8,409.2 261.5,410.7 258,408.3C257,407.6 255.4,404.6 254.5,401.8C252.3,394.4 252.4,394 255.9,395.3C259.2,396.5 262,395 262,392C262,389.5 260,388.2 255.6,387.8L251.7,387.5L249.6,378C244.9,357.1 240.3,350.9 193.1,302C156.4,264.1 152,258.8 149.9,250.9C147.2,241 154.5,231.7 203.5,182.2C223.2,162.2 241.1,143.6 243.2,140.9C247.8,134.7 250.3,127 253,110.3C255.7,93.6 257.7,86.6 260.6,83.9C262.6,82 263.2,81.9 264.6,83.1C267.6,85.6 269,90.8 270.5,104.3C272.3,119.8 274.4,129.9 277.3,135.5C281.3,143.4 287.7,150.7 316.5,179.8C348.5,212.3 355.4,219.8 357.8,224.8C359.7,228.7 358.7,231.1 354.9,232.1C353.6,232.5 336.6,232.8 317.2,232.9C284,233 281.9,232.9 282.2,231.3C282.5,229.7 284,229.5 293.2,229.2C309,228.8 309.3,227.5 296.8,215.4C280.1,199.2 266.6,190 259.8,190C254,190 248.5,194.3 228.9,213.9C213.7,229.1 208.7,234.8 206.6,239.1C201.6,249.5 203.3,252.6 228.4,277.5C253.5,302.5 259.5,307 268,307C272,307 273.6,306.4 277.8,303.2C287.5,296 300.9,279 304.6,269.4C309,257.8 300.4,254.1 268.3,254C257.3,254 255,253.1 255,248.5C255,243.8 256,243.7 308.6,244.2C354.7,244.7 357.9,244.9 360.3,246.6C361.8,247.7 363.2,249.2 363.6,250C364.9,252.7 365.3,294.6 364.1,296.9C362.1,300.5 359.1,298.9 358.4,293.9C357.3,285.6 356.8,284 355,283C352.5,281.7 347.5,285.6 327,304.3C318.3,312.4 310.9,319 310.6,319C310.156,319 309.989,318.265 310.04,317.225L308.274,318.96ZM251.074,301.505C250.972,301.29 250.756,301.127 250.407,301.049L251.074,301.505Z" style="fill:white;"/>
                </g>
                <path id="pyOH30x5s" d="M359.1,321.1C357.3,319.3 357,317.8 357,311.1C357,306.7 357.4,302.9 357.8,302.6C359,301.9 363.7,306.9 365,310.4C366.3,314 365.4,319.4 363,321.5C361.3,323.1 361,323 359.1,321.1Z" style="fill:white;fill-rule:nonzero;"/>
            </g>
        </g>
    </g>
</svg>
