<?xml version="1.0" encoding="UTF-8" standalone="no"?>
<!DOCTYPE svg PUBLIC "-//W3C//DTD SVG 1.1//EN" "http://www.w3.org/Graphics/SVG/1.1/DTD/svg11.dtd">
<svg width="100%" height="100%" viewBox="0 0 3000 3000" version="1.1" xmlns="http://www.w3.org/2000/svg" xmlns:xlink="http://www.w3.org/1999/xlink" xml:space="preserve" xmlns:serif="http://www.serif.com/" style="fill-rule:evenodd;clip-rule:evenodd;stroke-linejoin:round;stroke-miterlimit:2;">
    <g id="l4lcYFcbrKGqSZCztZObnAG" transform="matrix(1.34652,0,0,1.34652,-867.255,-816.81)">
        <g>
            <g>
                <path id="pTGNH5JMp" d="M797.9,2579C777.3,2574.7 773,2572.3 773,2565.1L773,2561L845.3,2560.8C916.1,2560.5 917.4,2560.5 912,2558.7C902,2555.5 890.1,2554 866.2,2553C845.6,2552.2 842.4,2551.9 841.3,2550.4C839.6,2548.1 839.7,2544 841.4,2541.8C842.7,2540 867.4,2525.8 911.8,2501.3C925.3,2493.9 941.5,2484.9 947.9,2481.2C963,2472.7 980.9,2464.2 994,2459.5C1010.3,2453.6 1028,2445.2 1059.7,2428.4C1075.8,2419.8 1098.9,2408.2 1111.1,2402.4C1134.7,2391.3 1140.2,2388.5 1180.6,2366.4C1227.7,2340.7 1233.6,2338.1 1262,2330.4C1278.3,2325.9 1278.6,2325.9 1285,2327.2C1289.2,2328 1302.1,2328.5 1322,2328.7C1338.8,2328.8 1381.5,2329.4 1416.9,2330.1C1464.5,2331 1483.4,2331 1489.2,2330.1C1499.1,2328.7 1509.6,2325.1 1517.1,2320.5C1520.7,2318.3 1524.1,2317 1526.2,2317C1535.2,2317 1547.6,2312 1565.3,2301.3C1571.5,2297.6 1592.9,2286.4 1613,2276.4C1642.3,2261.9 1649.8,2257.8 1651,2255.6C1653,2251.8 1655.1,2250.9 1663.7,2249.9C1673.5,2248.8 1680.6,2244.5 1692.6,2232.6C1700.7,2224.5 1705.1,2218.4 1731.6,2178.4C1748,2153.6 1763.5,2129.6 1766,2125C1768.5,2120.4 1773.1,2114 1776.5,2110.4C1779.8,2106.9 1785.6,2098.9 1789.3,2092.7C1793.1,2086.6 1801.5,2073.9 1808.2,2064.5C1822.4,2044.5 1841.8,2015.3 1845,2009.2C1846.3,2006.8 1847.6,2001.9 1848,1998.3C1848.6,1992.4 1849,1991.4 1852.1,1988.8C1861.3,1981 1864.1,1977.6 1868.4,1968.7C1879.8,1945 1880.1,1944.1 1877.5,1935.8C1876.4,1931.9 1876.3,1929.8 1877.3,1923.8L1878.6,1916.5L1889,1913.7C1897.6,1911.4 1907,1907.2 1941,1890.6C1963.8,1879.4 1985.9,1869 1990,1867.5C1999.6,1863.9 2010.8,1858.3 2044.4,1840.3C2075.3,1823.7 2127.9,1796.8 2157.7,1782.5L2177.9,1772.7L2182,1776.4C2184.2,1778.4 2186.6,1780 2187.4,1780C2190.9,1780 2245.7,1855.3 2284.7,1913.8C2293.7,1927.3 2298.6,1933.8 2299.3,1933.1C2302.7,1929.7 2293.7,1910.1 2276.1,1882.5C2264,1863.4 2242.2,1826.9 2222.5,1792.5C2204.9,1761.7 2200.3,1753 2202.8,1755.5C2209,1761.6 2309.6,1904.7 2314.2,1913.9C2319.3,1924.4 2317.5,1932.9 2306.5,1948.9C2282.9,1983.5 2212.6,2089 2210.9,2092.1C2208.4,2097.1 2208.4,2105 2211,2111.8C2213.5,2118.5 2213.5,2126.2 2211,2131.9C2209.9,2134.3 2203.8,2144.2 2197.3,2153.9C2190.9,2163.6 2184.1,2173.9 2182.1,2176.9C2173.6,2189.8 2156.8,2203.4 2138.9,2211.9C2132.2,2215 2129,2217.3 2124.9,2221.8C2118.7,2228.5 2101,2254.1 2059.1,2317C2027.4,2364.7 2022.4,2370.9 2009.3,2379.4C2005.6,2381.8 1949,2410.6 1883.5,2443.4C1818.1,2476.2 1732.8,2518.9 1694,2538.4C1655.2,2558 1620.8,2574.8 1617.5,2576C1601.7,2581.3 1627.9,2581 1201.2,2580.9C824.1,2580.9 806.1,2580.8 797.9,2579Z" style="fill:rgb(237,22,100);fill-rule:nonzero;"/>
                <path id="pMM2vHFUU" d="M735.5,2505.2C733.3,2504.1 730.8,2502.4 729.9,2501.4C726.7,2497.8 651,2378.7 651,2377.4C651,2375.6 654.4,2375.6 658,2377.5C660.6,2378.8 670.9,2391.5 679,2403.4L682.3,2408.3L687.1,2403.3C693.4,2396.7 693.9,2394.3 690.6,2387.7C685.8,2378.3 686.1,2378.5 678.3,2380.3C674.6,2381.1 671.4,2381.8 671.4,2381.7C671.3,2381.6 672.1,2376.1 673.2,2369.5L675.3,2357.6L671,2353.8C666.7,2350 656.6,2346 651.2,2346C647.5,2346 649.1,2344.9 660.5,2340C673.7,2334.3 674.8,2333.5 675.6,2329.2C677.3,2318.8 680.7,2312.8 692.2,2300.2C696,2296 702.8,2287.1 707.3,2280.5C718.5,2263.9 735.4,2239.7 794,2157C821.9,2117.7 845.8,2083.7 847.3,2081.5C848.7,2079.3 851.2,2073.3 852.9,2068.3C854.6,2063.2 857.1,2056.7 858.6,2053.8C861.5,2048.1 895.1,1998.2 902.4,1988.7C904.9,1985.5 909.4,1978.8 912.4,1973.7C915.4,1968.6 923.8,1955.7 931.2,1945C943.7,1926.6 945,1925.2 952.5,1919.8C968.1,1908.6 978.4,1904.6 997.7,1902.1C1010.5,1900.5 1018.9,1895.1 1025.8,1883.8C1028.4,1879.6 1036,1875.5 1046.5,1872.5C1054.3,1870.3 1056.5,1868.8 1059,1864C1060.1,1861.8 1061.6,1860 1062.4,1860C1063.1,1860 1069.7,1857.1 1076.9,1853.5C1088,1848 1090,1847.3 1090,1848.9C1090,1849.9 1090.8,1851.8 1091.8,1853C1093.3,1854.9 1094.3,1855.2 1097.1,1854.6C1104.9,1853.2 1110.4,1847.4 1111.6,1839.3L1112.2,1835.1L1128.9,1829C1182.1,1809.5 1195.1,1803 1215.4,1785.5C1225.5,1776.9 1227.9,1775.6 1233.1,1776.4C1236.3,1776.9 1237,1776.5 1241.9,1771.5C1248.6,1764.6 1254.7,1761.8 1268.5,1759.1C1274.6,1757.9 1283,1755.7 1287.2,1754.2L1294.9,1751.6L1292.8,1749.3C1291.6,1748 1290.8,1746.8 1291.1,1746.6C1291.3,1746.4 1302.1,1741.4 1315,1735.5C1354.3,1717.7 1376.7,1705.5 1395,1692C1399.4,1688.7 1403.2,1686 1403.5,1686C1403.8,1686 1404,1687.5 1404,1689.3C1404,1696 1408.7,1706 1411.9,1706C1415.2,1706 1420.6,1698.4 1423.3,1689.9L1426,1681.4L1563.4,1609.8L1567.4,1611.8C1573,1614.5 1577.5,1615.3 1579.8,1614.1C1580.9,1613.5 1584.4,1609.5 1587.6,1605.1L1593.5,1597.1L1613,1586.1C1637.7,1572.3 1653.9,1564.2 1666.2,1559.6C1687.5,1551.7 1709.5,1547.9 1723,1549.9C1745.5,1553.2 1746.8,1553.3 1770.5,1551.5C1794.7,1549.6 1814.5,1549.8 1829.4,1552.1C1835.5,1553 1839.9,1553 1847.9,1552.2C1853.7,1551.5 1869.5,1551 1883,1551C1896.5,1551.1 1916.7,1550.6 1928,1550C1943.8,1549.1 1951.2,1549.2 1960.2,1550.1C1980,1552.2 1985,1550.6 2023.4,1530.1C2050,1515.8 2068.1,1506.9 2080.5,1502C2089.8,1498.3 2098.4,1493.5 2109.5,1485.4C2113.9,1482.3 2121.5,1477.7 2126.4,1475.3C2137.2,1470 2147.7,1460 2152.8,1450.4C2155.4,1445.3 2157.3,1443.4 2163.2,1439.2C2171.4,1433.6 2190.9,1415.5 2195.2,1409.6C2198.6,1404.8 2198.7,1403 2195.5,1399.2C2194.1,1397.5 2193,1395.7 2193,1395C2193,1394.3 2196,1390.6 2199.7,1386.6C2203.3,1382.7 2208.3,1376.9 2210.7,1373.6C2214.8,1368.1 2215,1367.4 2215,1361C2215,1352.9 2218.3,1345.5 2225.7,1337C2233.5,1328.2 2235.7,1325.1 2257.9,1292C2269.5,1274.7 2283.6,1254 2289.1,1246C2298.9,1231.9 2311.5,1208.5 2312.5,1202.5C2313.1,1199.7 2312.7,1199.3 2307.1,1196.1C2298.5,1191.2 2294.2,1186.5 2290.3,1178.2C2288.4,1174.1 2287,1170.7 2287.2,1170.5C2287.4,1170.3 2292.9,1174.2 2299.5,1179L2311.5,1187.9L2312.2,1181.9C2313.5,1170.7 2318.6,1163.8 2330.2,1157.5C2335.3,1154.7 2335.6,1154.7 2342.2,1155.8C2352.5,1157.6 2355.6,1157.4 2357.4,1154.8C2359.6,1151.7 2359.4,1149.6 2356.5,1146.2C2353.4,1142.5 2353.4,1142 2356.6,1142C2361,1142 2374.1,1137.1 2384.5,1131.6C2390,1128.6 2399.7,1124.1 2406,1121.4C2430.5,1111.1 2706.7,971.9 2745.5,950.2C2754.9,944.9 2760.8,943.9 2767.4,946.4C2774.2,949 2771.3,944.6 2810.8,1012.7L2828.9,1043.8L2830,1057.2C2831.8,1078 2831.3,1077.8 2840.8,1059.9C2846.2,1049.9 2848.9,1043.8 2848.6,1042.4C2848.1,1040.4 2837.3,1022.9 2808.5,977.5C2790.1,948.5 2777,926.2 2777,924.2C2777,922.2 2781.3,923.4 2787,926.8C2790.3,928.8 2793.2,932.1 2797.8,939C2812.7,961.4 2862.8,1038.8 2864.4,1041.7C2867.1,1047 2867.4,1052.8 2865.3,1059C2864,1062.7 2848.4,1086.8 2816.3,1134.5C2790.4,1173 2768.5,1206.1 2767.5,1208C2765,1212.8 2765.2,1221.3 2767.9,1227C2770.3,1232.3 2770.6,1240 2768.5,1245.9C2767.7,1248.2 2758.9,1262.2 2748.9,1277C2726.4,1310.5 2723.8,1313.1 2703.1,1323.3C2691.2,1329.1 2687.6,1331.4 2682.5,1336.4C2678,1340.9 2663.9,1361.1 2627.5,1415.5C2575.3,1493.5 2572.4,1497.2 2558.5,1506.2C2554.6,1508.7 2491.2,1540.9 2417.5,1577.8C2343.8,1614.6 2199.4,1687 2096.5,1738.7C1993.7,1790.4 1906.8,1833.7 1903.6,1834.9C1887.7,1840.8 1900.6,1840.4 1718,1841L1550.5,1841.5L1542.5,1843.7C1536.7,1845.3 1512.8,1856.8 1454.5,1886C1372.7,1926.9 1364.9,1931.3 1357.7,1940.3C1353.5,1945.5 1332,1977.2 1259.5,2085C1228.3,2131.5 1199,2174.9 1194.5,2181.5C1184.2,2196.6 1182,2200.9 1181.3,2207.5C1180.6,2214 1182.6,2220.3 1187.3,2226.8C1192.9,2234.4 1205.1,2254.1 1207.6,2259.5C1208.9,2262.3 1210,2266.3 1210,2268.4C1210,2275.9 1207.3,2277.6 1141.9,2310.7C1109.3,2327.2 1008.3,2377.9 917.5,2423.4C758.5,2503.1 752.3,2506.2 746,2506.6C741,2507 738.6,2506.7 735.5,2505.2ZM732.7,2327.9C735.1,2326.8 739,2323.9 741.5,2321.4C745.4,2317.7 746,2316.5 746,2313C746,2307.7 743.1,2305 734.5,2302.1C725.5,2299.2 722.5,2299.4 718.9,2302.9C715,2306.8 715.1,2311.5 719.3,2322.6C722.5,2331.1 722.5,2331.1 725.5,2330.6C727.1,2330.2 730.4,2329 732.7,2327.9ZM1130.6,2290.4C1147.2,2283.7 1164.8,2274.1 1169,2269.3C1173.1,2264.7 1176,2257.7 1176,2252.6C1176,2251 1173.5,2244.5 1170.4,2238.2C1165.7,2228.7 1163.4,2225.4 1157.1,2218.9C1152.9,2214.5 1148.9,2211 1148.3,2211C1147.4,2211 1147.7,2212.6 1149.2,2216.3C1155.9,2233 1157.8,2243 1156,2252.6L1154.7,2259.1L1137.1,2276.5C1127.4,2286.1 1120,2294 1120.6,2294C1121.2,2294 1125.7,2292.4 1130.6,2290.4Z" style="fill:rgb(237,22,100);fill-rule:nonzero;"/>
                <path id="pFM4cHVbL" d="M1286,1675.7C1278.7,1673.2 1275.8,1670.6 1268.5,1659.5C1244.4,1622.9 1175.2,1515.4 1172.2,1509.9C1169,1504.1 1168.7,1503 1169.9,1501.6C1171.2,1500 1171.7,1500.2 1175.4,1503.7C1184.6,1512.3 1184.8,1512.4 1187.4,1511.2C1188.8,1510.6 1190.6,1508.9 1191.6,1507.5C1193,1505.4 1193,1504.5 1192,1502C1191.3,1500.3 1190,1498.6 1189.2,1498.1C1187.8,1497.3 1188.4,1496.3 1192.4,1491.6C1195,1488.5 1199.1,1484.7 1201.4,1483C1212.6,1475.4 1217.8,1464.9 1221,1444.1C1223,1430.4 1227,1425.1 1236,1423.6C1241.4,1422.8 1244.9,1419.4 1253.3,1407.2C1261.7,1394.9 1265.8,1387.9 1269,1379.8C1273.2,1369 1281.6,1362 1292.1,1360.5L1296.7,1359.8L1296,1356.4C1295.5,1354.5 1294.6,1352.3 1293.9,1351.4C1292.1,1349.3 1287.5,1347 1284.9,1347C1283.2,1347 1282.9,1346.6 1283.3,1344.8C1285.3,1336.6 1287.2,1324.9 1286.7,1323.8C1286.5,1323.1 1283,1321.4 1279.1,1320.2C1274.8,1318.8 1272,1317.3 1272,1316.5C1272,1315.6 1275.2,1314.2 1280.8,1312.5C1285.6,1311.1 1290.1,1309.7 1290.8,1309.5C1291.6,1309.2 1291.9,1308.2 1291.5,1307.1C1290.5,1303.9 1298.9,1287.3 1305.1,1280.4C1310.4,1274.3 1312.3,1271.3 1321.1,1255.6C1325.7,1247.3 1333.6,1237.6 1335,1238.5C1337.2,1239.9 1337.1,1247.6 1334.9,1253.5C1333.1,1258.1 1332.6,1261.6 1332.5,1268.5C1332.5,1282.2 1333.6,1281.6 1347.8,1259.3C1354.3,1249 1362.1,1236.2 1365,1231C1371.9,1218.6 1376,1212.5 1389.5,1195C1404.2,1175.8 1408.5,1169.6 1416,1156.5C1423.7,1143.1 1429.2,1134.9 1443,1116C1448.9,1108 1456.2,1097.4 1459.4,1092.3C1463.9,1085 1467.3,1081.1 1475.8,1073.4C1488.8,1061.6 1496.8,1056.3 1508.7,1051.5C1513.8,1049.5 1526.1,1043.2 1536.1,1037.5C1546.1,1031.7 1557.7,1025.7 1561.9,1024C1572.2,1019.8 1572.1,1019.9 1574.7,1015C1576.3,1012 1578.6,1009.7 1582.1,1007.6C1591.2,1002.2 1591.7,1001.9 1594,1002.8C1596.2,1003.6 1596.2,1003.6 1593.5,1005.4C1590.2,1007.6 1587.1,1014.3 1587,1019.3C1587,1022.8 1587.2,1023.1 1589.3,1022.5C1593.4,1021.2 1598.4,1016.4 1605.5,1007L1612.6,997.7L1619.5,995.8C1629.5,993.1 1645.6,985.1 1668.2,971.6C1682.8,962.9 1697,955.7 1723.2,943.6C1767.6,923.1 1771.9,920.9 1797.4,906.1C1829.8,887.2 1829.6,887.3 1847,885.9C1862,884.7 1866.1,883.1 1871.9,876.2C1876.6,870.7 1878.3,869.8 1888.1,867.5C1897.1,865.5 1934.2,862.7 1963.8,861.8C1971.6,861.6 1973,862.3 1973,866.8C1973,869.4 1972.7,869.4 1978.1,867.5C1990.3,863.2 2004.9,862 2031,863.1C2046.5,863.8 2054.8,863.7 2071.5,862.3C2097.1,860.3 2096.6,860.3 2106.5,862.9C2113.5,864.7 2117.4,865 2137.5,865C2150.2,865 2170.9,865.6 2183.5,866.2C2214.7,867.9 2223.6,867.6 2237.4,864.5C2248.4,862 2249.4,862 2260.2,863.1C2268.6,864 2292.7,864.1 2353,863.6C2397.8,863.2 2491.7,862.5 2561.5,862.1C2631.4,861.6 2689.6,860.9 2690.9,860.5C2702.6,856.7 2654.2,894.6 2628.3,909.6C2623.1,912.5 2624.4,913 2631.8,911C2635.5,910 2651.6,905.5 2667.5,901C2705.4,890.4 2733.2,883.3 2740,882.5L2745.5,881.8L2736,887.5C2730.8,890.6 2643.3,934.7 2541.5,985.4C2439.8,1036.1 2335.6,1088.3 2310,1101.4C2284.4,1114.5 2260.6,1126.4 2257.1,1127.7C2240.7,1133.9 2249.7,1133.5 2110,1133.5L1982.5,1133.5L1974,1136.5C1969.3,1138.1 1936.8,1153.8 1901.8,1171.3C1839.6,1202.4 1837.9,1203.3 1830.6,1210.1C1824.1,1216.2 1817.5,1225.6 1772.4,1292.7C1744.5,1334.4 1709.5,1386.4 1694.7,1408.4C1679.9,1430.3 1666.6,1450.6 1665.2,1453.4C1661.9,1459.9 1661.1,1469 1663.4,1475.6C1666.7,1485.4 1664.9,1490.9 1656.5,1496.4C1653.8,1498.2 1572.3,1539.4 1475.5,1587.9C1287.2,1682.3 1294.7,1678.8 1286,1675.7Z" style="fill:rgb(237,22,100);fill-rule:nonzero;"/>
            </g>
        </g>
    </g>
</svg>
