<?xml version="1.0" encoding="UTF-8" standalone="no"?>
<!DOCTYPE svg PUBLIC "-//W3C//DTD SVG 1.1//EN" "http://www.w3.org/Graphics/SVG/1.1/DTD/svg11.dtd">
<svg width="100%" height="100%" viewBox="0 0 1024 1024" version="1.1" xmlns="http://www.w3.org/2000/svg" xmlns:xlink="http://www.w3.org/1999/xlink" xml:space="preserve" xmlns:serif="http://www.serif.com/" style="fill-rule:evenodd;clip-rule:evenodd;stroke-linejoin:round;stroke-miterlimit:2;">
    <g transform="matrix(0.106091,0,0,-0.106091,-29.3373,1056.67)">
        <path d="M9756.28,6327.93C9776.31,6248.36 9797.2,6160.75 9819,6065C9843,5958 9874,5737 9891,5550C9915,5292 9903,4696 9871,4505L9864,4465L7074,4462L4283,4460L4277,6417C4273,7494 4273,8713 4276,9127L4283,9878L4354,9889C4434,9900 4693,9928 4785,9934C4922,9943 5461,9931 5600,9915C5691.42,9905.04 5782.22,9892.69 5872.26,9877.98C5857.48,9876.14 5842.58,9874.09 5827.55,9871.83C5351.37,9769.49 4931.25,9318.53 4654.86,8638.3C4453.63,8142.61 4328.68,7525.16 4314.07,6832.15C4288.85,5616.78 4843.72,4441.87 5613.47,4473.01C6380.17,4507.81 6769.78,5229.79 6790.18,6394.09C6790.34,6406.82 6790.5,6419.46 6790.5,6432.06C6792.91,7407.03 6436.06,8083.08 5811.97,8120.71C5689.76,8128.35 5551.64,8088.17 5424.45,8001.64C5336.6,7941.83 5253.89,7859.85 5185.32,7756.23C5217.44,7892.25 5253.09,8015.15 5292.11,8125.64C5545.86,8843.57 5942.7,9035.68 6439.11,8875.17L6439.11,9751.36C6783.26,9653.02 7111.18,9518.42 7415,9350C7562.87,9268.82 7912.5,9041.92 7992.65,8976.24L7218.5,7050.83L7218.5,5834.82L8579.25,5834.82L8579.25,4545.9L9358.96,4545.9L9358.96,5834.82L9756.28,5834.82L9756.28,6327.93ZM9358.96,7363.72C9415.12,7257.21 9466.32,7151.1 9509.47,7050.83L9358.96,7050.83L9358.96,7363.72ZM8512.05,8517.87C8535.66,8494.29 8558.24,8471.28 8579.25,8449.35L8579.25,7050.83L7906.5,7050.83L8512.05,8517.87ZM5597.73,7196.6C5857.26,7199.92 6072.46,6842.42 6071.66,6394.09C6072.46,5959.39 5857.26,5601.88 5597.73,5591.61C5334.51,5602.22 5118.51,5959.39 5123.97,6394.09C5118.51,6842.42 5334.51,7200.26 5597.73,7196.6Z" style="fill:white;"/>
        <path d="M1920,8742C1716,8560 1471,8299 1334,8120C1302,8079 1268,8036 1257,8025C1247,8014 1179,7915 1106,7805C919,7524 766,7243 671,7005C653,6961 635,6921 630,6915C604,6883 479,6476 404,6180C384,6098 343,5853 324,5700C293,5437 294,4833 327,4518L333,4460L2010,4460L2010,6635C2010,7831 2007,8810 2003,8810C1998,8810 1961,8779 1920,8742Z" style="fill:white;fill-rule:nonzero;"/>
        <path d="M4464,3543L4283,3540L4276,2409C4271,1490 4276,400 4285,400C4286,400 4312,395 4341,390C4590,342 5104,317 5415,339C5764,364 5930,391 6331,492C6484,530 6755,614 6775,630C6781,634 6796,641 6810,645C6983,696 7579,994 7664,1072C7675,1082 7688,1090 7693,1090C7706,1090 7910,1232 8015,1315C8065,1353 8121,1397 8140,1411C8159,1426 8189,1450 8205,1466C8222,1482 8275,1530 8324,1573C8435,1672 8562,1799 8664,1915C8707,1965 8754,2016 8768,2030C8781,2044 8804,2071 8819,2090C8833,2109 8876,2166 8915,2215C8977,2293 9038,2381 9191,2610C9238,2681 9412,3001 9460,3105C9481,3149 9519,3239 9545,3305C9571,3371 9601,3444 9611,3467C9622,3490 9630,3515 9630,3523C9630,3535 9457,3538 8513,3543C7463,3550 4864,3549 4464,3543Z" style="fill:white;fill-rule:nonzero;"/>
        <path d="M580,3532C580,3521 617,3411 630,3385C635,3374 658,3318 681,3260C764,3046 849,2878 992,2640C1062,2522 1218,2291 1256,2247C1268,2234 1305,2187 1338,2144C1420,2036 1643,1795 1771,1674C1888,1564 1996,1470 2004,1470C2007,1470 2010,1936 2010,2505L2010,3540L1295,3540C902,3540 580,3536 580,3532Z" style="fill:white;fill-rule:nonzero;"/>
    </g>
</svg>
