<?xml version="1.0" encoding="UTF-8" standalone="no"?>
<!DOCTYPE svg PUBLIC "-//W3C//DTD SVG 1.1//EN" "http://www.w3.org/Graphics/SVG/1.1/DTD/svg11.dtd">
<svg width="100%" height="100%" viewBox="0 0 1080 1080" version="1.1" xmlns="http://www.w3.org/2000/svg" xmlns:xlink="http://www.w3.org/1999/xlink" xml:space="preserve" xmlns:serif="http://www.serif.com/" style="fill-rule:evenodd;clip-rule:evenodd;stroke-linejoin:round;stroke-miterlimit:2;">
    <g transform="matrix(1.23218,0,0,1.23218,-15.6903,-241.062)">
        <path d="M325.214,653.098L404.508,653.098L427.256,698.594C427.256,698.594 458.453,685.595 475.352,672.596C481.791,667.643 470.153,659.597 469.503,658.297L469.503,653.162L625.156,653.162L625.156,786.236L761.544,652.638L761.544,642.871L744.626,625.954L847.353,625.954L550.596,922.711L550.596,875.185L567.775,864.894L549.986,864.894L549.986,666.766L442.724,741.238L472.304,799.84L522.673,799.84L457.235,847.558L403.656,847.558L375.053,786.445L293.43,844.07L217.945,844.07L358.728,748.494L358.728,738.866L317.986,660.871L325.214,653.098Z" style="fill:white;"/>
    </g>
    <g transform="matrix(1.01156,0,0,1.01156,-12.4023,85.356)">
        <g id="Layer1">
            <path d="M349.954,355.933C348.684,358.532 341.559,370.636 314.144,383.405L255.63,383.405L219.165,310.899L175.916,396.549L165.74,396.973L170.828,404.181L19.033,502.976L168.284,202.352L168.708,202.352C177.612,181.576 132.111,156.71 132.111,156.71L299.81,156.71L268.487,222.729L326.795,181.768L309.929,156.71L486.784,156.71L312.821,274.773L332.578,307.06L362.937,307.06L395.706,240.077C395.706,240.077 431.366,193.815 481.001,182.732L628.484,182.732C628.484,182.732 674.277,197.938 672.157,229.738L685.301,205.146L712.014,205.146C712.014,205.146 774.767,186.065 804.448,135.608L1073.27,135.608L963.876,212.778L889.674,212.778L877.378,238.643L994.829,238.643L866.778,329.381L828.193,329.381L815.472,356.094L668.765,461.248L769.679,261.115L758.231,269.595L661.408,451.246L638.512,460.575L632.152,474.991L512.157,553.433L606.287,363.052C606.287,363.052 584.238,386.797 547.774,402.485L476.964,402.485L481.628,396.549L365.873,396.549C365.873,396.549 340.408,377.763 349.954,355.933C350.118,355.597 350.185,355.42 350.185,355.42C350.106,355.591 350.029,355.762 349.954,355.933ZM572.366,235.425L495.196,235.425C495.196,235.425 479.932,242.633 473.148,260.442C466.364,278.25 435.835,335.491 435.835,335.491C435.835,335.491 437.107,343.548 446.011,344.82C454.915,346.092 520.213,344.82 520.213,344.82C520.213,344.82 535.053,340.156 544.805,320.651C554.558,301.147 578.726,253.233 578.726,253.233C578.726,253.233 579.574,240.089 572.366,235.425Z" style="fill:white;"/>
        </g>
    </g>
    <g id="Layer2">
    </g>
</svg>
