<?xml version="1.0" encoding="UTF-8" standalone="no"?>
<!DOCTYPE svg PUBLIC "-//W3C//DTD SVG 1.1//EN" "http://www.w3.org/Graphics/SVG/1.1/DTD/svg11.dtd">
<svg width="100%" height="100%" viewBox="0 0 300 300" version="1.1" xmlns="http://www.w3.org/2000/svg" xmlns:xlink="http://www.w3.org/1999/xlink" xml:space="preserve" xmlns:serif="http://www.serif.com/" style="fill-rule:evenodd;clip-rule:evenodd;stroke-linejoin:round;stroke-miterlimit:2;">
    <rect id="Artboard1" x="0" y="0" width="300" height="300" style="fill:none;"/>
    <g transform="matrix(-4.97851e-16,2.25213,-2.07355,-6.98026e-16,2234.71,-1765.39)">
        <path d="M863.892,1014.01L895.791,1014.01C898.686,1014.01 901.291,1015.92 902.377,1018.84C903.463,1021.75 902.812,1025.09 900.732,1027.27C887.035,1041.67 865.841,1063.95 856.309,1073.97C853.554,1076.87 849.182,1076.87 846.427,1073.97C836.895,1063.95 815.701,1041.67 802.004,1027.27C799.924,1025.09 799.273,1021.75 800.359,1018.84C801.445,1015.92 804.05,1014.01 806.944,1014.01C821.162,1014.01 838.844,1014.01 838.844,1014.01L838.844,942.205C838.844,937.944 842.025,934.489 845.948,934.489C849.342,934.489 853.394,934.489 856.788,934.489C860.711,934.489 863.892,937.944 863.892,942.205C863.892,962.176 863.892,1014.01 863.892,1014.01Z" style="fill:rgb(125,132,143);"/>
    </g>
</svg>
