<?xml version="1.0" encoding="UTF-8" standalone="no"?>
<!DOCTYPE svg PUBLIC "-//W3C//DTD SVG 1.1//EN" "http://www.w3.org/Graphics/SVG/1.1/DTD/svg11.dtd">
<svg width="100%" height="100%" viewBox="0 0 1080 1080" version="1.1" xmlns="http://www.w3.org/2000/svg" xmlns:xlink="http://www.w3.org/1999/xlink" xml:space="preserve" xmlns:serif="http://www.serif.com/" style="fill-rule:evenodd;clip-rule:evenodd;stroke-linecap:round;stroke-linejoin:round;stroke-miterlimit:1.5;">
    <g transform="matrix(1.492,0,0,1.492,-519.129,-467.615)">
        <circle cx="709.872" cy="675.345" r="345.269" style="fill:none;stroke:white;stroke-width:26.81px;"/>
    </g>
    <g transform="matrix(0.482278,0,0,-0.482278,-1320.44,1206.55)">
        <g id="Layer1">
            <path d="M3643,2156C3539,2077 3366,1884 3289,1760C3252,1700 3237,1664 3234,1631C3229,1586 3230,1586 3245,1608C3254,1620 3266,1628 3271,1625C3276,1621 3295,1631 3314,1645C3333,1659 3352,1669 3358,1668C3363,1666 3393,1687 3424,1713C3469,1751 3484,1759 3494,1750C3504,1742 3510,1742 3515,1750C3518,1756 3526,1758 3531,1754C3537,1751 3550,1756 3560,1765C3576,1779 3591,1781 3653,1775C3724,1768 3729,1769 3740,1790C3746,1802 3754,1809 3757,1806C3760,1803 3784,1816 3809,1834C3889,1893 4014,1949 4135,1980C4199,1997 4256,2010 4262,2010C4268,2010 4244,1989 4209,1963C4174,1938 4105,1881 4055,1837C4006,1793 3920,1723 3866,1682C3786,1622 3754,1604 3708,1593C3675,1585 3645,1582 3639,1586C3634,1589 3624,1587 3617,1582C3610,1577 3589,1567 3569,1561C3537,1551 3490,1514 3501,1507C3503,1506 3528,1494 3555,1480C3583,1466 3607,1454 3609,1453C3611,1451 3586,1420 3553,1383C3521,1345 3491,1307 3487,1297C3483,1288 3470,1276 3458,1271C3433,1262 3407,1234 3397,1210C3394,1202 3353,1149 3306,1093C3227,999 3216,990 3184,990C3155,990 3148,985 3140,963C3134,947 3125,927 3119,916C3112,904 3112,890 3119,871C3124,857 3137,807 3146,761C3158,704 3170,672 3183,661C3194,652 3222,628 3245,608C3268,587 3293,570 3301,570C3331,571 3363,599 3384,641C3400,672 3426,698 3476,732C3514,758 3557,784 3572,791C3589,798 3597,807 3593,816C3590,824 3594,830 3601,831C3609,831 3642,842 3675,856C3727,877 3730,879 3698,875C3633,865 3656,885 3733,904C3830,930 3987,937 4003,917C4010,909 4042,894 4075,885C4150,864 4203,837 4244,800C4261,784 4296,752 4323,729C4349,706 4370,682 4370,674C4370,667 4383,652 4400,640C4416,629 4437,605 4447,589C4465,559 4465,559 4470,582C4474,598 4484,606 4504,608C4528,611 4537,623 4571,693C4593,738 4606,776 4600,778C4595,780 4590,793 4590,806C4590,823 4586,829 4578,824C4570,819 4569,822 4574,836C4579,846 4584,864 4587,875L4591,895L4575,875C4558,856 4558,859 4563,929C4567,972 4565,1011 4559,1022C4552,1036 4552,1045 4560,1055C4568,1065 4570,1087 4565,1121C4557,1175 4540,1172 4540,1116C4540,1093 4537,1090 4527,1099C4518,1106 4508,1156 4500,1232C4490,1329 4482,1364 4462,1398C4447,1424 4434,1437 4430,1430C4425,1423 4416,1422 4397,1429C4363,1442 4363,1436 4400,1394C4447,1340 4456,1294 4441,1187C4428,1095 4389,972 4369,959C4363,956 4319,970 4270,991C4222,1013 4129,1046 4064,1065L3946,1100L3860,1086C3813,1078 3732,1066 3680,1060C3628,1054 3554,1042 3517,1033C3479,1025 3446,1021 3442,1024C3430,1037 3570,1295 3619,1349L3668,1404L3737,1373C3774,1356 3815,1339 3827,1335C3839,1332 3876,1309 3908,1286C3940,1262 3977,1237 3989,1231C4014,1217 4070,1226 4070,1243C4070,1269 3976,1442 3951,1461C3937,1472 3903,1502 3877,1527L3829,1573L3855,1600C3869,1615 3880,1631 3878,1636C3873,1656 3904,1693 3962,1735C4025,1782 4050,1790 4050,1765C4050,1743 4065,1746 4123,1783C4218,1844 4307,1890 4328,1890C4340,1890 4351,1898 4355,1910C4365,1943 4339,2032 4312,2057C4288,2079 4288,2080 4304,2126C4312,2152 4318,2176 4315,2180C4312,2184 4285,2191 4255,2195C4213,2200 4192,2197 4167,2185C4150,2176 4104,2167 4065,2165C4027,2163 3962,2154 3921,2145L3848,2130L3824,2155C3771,2213 3719,2213 3643,2156Z" style="fill:white;fill-rule:nonzero;"/>
        </g>
    </g>
</svg>
