<?xml version="1.0" encoding="UTF-8" standalone="no"?>
<!DOCTYPE svg PUBLIC "-//W3C//DTD SVG 1.1//EN" "http://www.w3.org/Graphics/SVG/1.1/DTD/svg11.dtd">
<svg width="100%" height="100%" viewBox="0 0 1080 1080" version="1.1" xmlns="http://www.w3.org/2000/svg" xmlns:xlink="http://www.w3.org/1999/xlink" xml:space="preserve" xmlns:serif="http://www.serif.com/" style="fill-rule:evenodd;clip-rule:evenodd;stroke-linejoin:round;stroke-miterlimit:2;">
    <g transform="matrix(1.26848,0,0,1.26848,-211.553,-178.267)">
        <g transform="matrix(1.64576,0,0,1.64576,-382.598,-365.653)">
            <path d="M618.721,423.99L668.44,433.657L682.251,400.512L676.726,386.701C676.726,386.701 709.872,352.174 726.445,368.747C743.018,385.32 586.957,549.668 586.957,549.668C586.957,549.668 566.343,571.233 610.435,580.051C631.151,584.194 620.102,607.673 620.102,607.673L676.726,564.859L651.867,564.859L729.207,523.427L704.348,551.049L847.98,452.992L758.21,480.614L762.353,465.422L707.11,519.284L622.864,562.097C622.864,562.097 562.097,571.765 709.872,457.136C709.872,457.136 818.977,368.747 773.402,357.698L795.499,360.46L809.309,328.696L773.402,345.269C773.402,345.269 720.921,314.885 650.486,385.32L651.867,363.223C651.867,363.223 596.624,403.274 618.721,423.99Z" style="fill:white;"/>
        </g>
        <g transform="matrix(1.64576,0,0,1.64576,-382.598,-365.653)">
            <path d="M336.982,803.785L534.476,403.274L573.146,428.133L647.724,436.419L649.105,459.898L519.284,578.67L567.621,696.061L497.187,627.008L476.471,624.246L336.982,803.785ZM545.524,458.517L508.235,513.76L495.806,562.097L596.624,465.422L545.524,458.517Z" style="fill:white;"/>
        </g>
    </g>
</svg>
